<?xml version="1.0" encoding="UTF-8"?>
<svg xmlns="http://www.w3.org/2000/svg" id="Layer_1" data-name="Layer 1" viewBox="0 0 600 160">
  <defs>
    <style>
      .cls-1 {
        fill: #fcfcfb;
      }

      .cls-1, .cls-2, .cls-3, .cls-4, .cls-5, .cls-6 {
        stroke-width: 0px;
      }

      .cls-2 {
        fill: #71b66b;
      }

      .cls-3 {
        fill: #ff9c1a;
      }

      .cls-4 {
        fill: #fff;
      }

      .cls-5 {
        fill: #00a443;
      }

      .cls-6 {
        fill: #0da9ff;
      }
    </style>
  </defs>
  <rect class="cls-2" x="52.34" y="122.75" width="495.4" height="37.1"></rect>
  <g>
    <path class="cls-1" d="m118.13,57.5v44.25c0,3.38.11,3.38,3.22,3.38s3.16,0,3.16-3.38c.06-8.84-.06-17.62.06-26.46.05-3.38.27-3.65,3.76-3.71,4.15-.06,8.29-.06,12.44,0,13.75.05,24.44,10.37,24.82,24.17.05,1.64.05,3.22.11,4.85.06,4.75.16,4.75,4.75,4.58,1.8-.06,2.73-.6,2.51-2.51-.55-4.97-.98-9.93-1.58-14.84-.22-1.75-.82-3.44-1.47-5.13-2.35-6.11-6.27-10.75-12.33-13.48-2.13-.98-2.13-1.58-.16-2.78,4.91-3,8.29-7.2,10.47-12.55,2.67-6.6,3.17-13.48,3-20.51-.05-2.95-.11-2.95-3.6-2.95s-3.44,0-3.65,2.95c-.33,4.64-.11,9.44-1.31,13.8-2.13,7.75-6.49,14.51-14.9,16.04-6.98,1.25-14.24.66-21.44.76-.44,0-1.15-.82-1.2-1.36-.22-1.2-.11-2.51-.11-3.76V11.94c0-1.36-.71-1.75-2.02-1.91-4.04-.38-4.42-.06-4.42,4.31-.16,14.4-.11,28.75-.11,43.16Zm-41.41,6.6h-21.01c-3.33,0-3.38.06-3.38,3.17-.16,11.57,3.6,21.77,11.46,30.23,10.69,11.51,29.03,11.95,40.54,1.2,1.2-1.09,2.78-3.33,3.49-3.11,3.55,1.26,2.67-1.09,2.73-2.78.05-1.42.11-2.89-.05-4.31-.06-.66-.49-1.75-.82-1.75-2.35-.16-4.64-.11-6.98-.11.05.93.16,1.8.05,2.67-.05.49-.55.87-.93,1.31-5.84,6.82-15.28,10.2-24.23,6.88-10.58-3.93-15.88-12.22-17.89-22.86-.49-2.62-.06-2.95,2.89-3,11.68-.05,23.35,0,35.03,0,4.04,0,4.04-.05,3.98-4.26-.05-3.11-.05-3.22-3.33-3.22-7.15-.11-14.35-.06-21.55-.06Zm104.05.6v37.21c0,3.22.11,3.22,3.38,3.22q3.71,0,3.77-3.93v-57.67c0-6.33-.82-5.57,5.84-5.62,2.18,0,4.31-.06,6.49,0,1.36.05,1.96-.66,1.96-1.91v-1.64c.05-3.87.05-3.93-3.66-3.98-2.67-.05-5.4-.11-8.07,0-1.85.05-2.45-.71-2.45-2.56-.06-5.78,2.07-8.84,7.8-10.53,1.36-.38,2.73-.76,4.15-.87,1.53-.06,2.35-.55,2.29-2.18-.05-1.26.16-2.56-.11-3.76-.16-.6-1.04-1.47-1.64-1.53-6.44-.38-11.95,1.42-15.82,6.98-2.84,4.15-3.82,8.78-3.87,13.64-.11,11.79-.06,23.46-.06,35.14Zm-72.89-22.26c-.82-1.25-1.31-2.24-1.97-3-6.55-7.53-18.55-12.44-30.12-8.35-9.6,3.38-15.44,10.48-19.91,19.2-.66,1.25-.33,3.55-2.95,2.95-.11,0-.76.87-.66,1.15.82,2.51,1.64,5.07,2.78,7.48.76,1.58,2.13.27,2.67-.22,1.64-1.36,5.84-1.2,4.75-3.71-1.15-2.78-.44-4.58.76-6.38,1.85-2.84,3.98-5.56,6.38-7.86,6.27-6,13.75-7.04,21.93-4.91,4.36,1.15,7.37,4.2,10.69,6.87.6.49,1.91,1.04,2.18.82,1.31-1.2,2.29-2.62,3.44-4.04Zm110.32,32.46h-.06c0,9.17-.05,18.33.06,27.5,0,.82.76,1.64,1.2,2.46.38-.88.87-1.69,1.09-2.56.16-.66,0-1.42,0-2.13,0-14.02,0-28.04-.06-42.07v-10.8c0-.44.33-.87.49-1.31.22.27.49.55.6.82,2.35,6.77,7.85,11.4,11.18,17.51.16.33.87.33,1.31.49.06-.49.27-1.04.06-1.47-.87-1.96-1.91-3.82-2.73-5.84-2.18-5.24-3.71-10.69-7.91-15-1.42-1.47-2.67-3.98-1.53-6.82,2.13-5.07,3.82-10.31,5.62-15.5.33-.98.44-2.13.49-3.16.05-.49-.22-.98-.38-1.47-.44.33-1.03.54-1.2.98-2.67,6.33-7.85,11.57-8.29,18.93-.16,2.51-2.84,4.64-4.64,4.97-6.49,1.04-12.93,2.18-19.37,3.38-.44.06-.76.66-1.14,1.04.49.22,1.04.6,1.53.66,3.93.11,7.97-.16,11.84.33,2.89.38,5.46.49,8.18-.93,2.51-1.25,3.49-.38,3.49,2.51.16,9.16.16,18.33.16,27.5Z"></path>
    <path class="cls-2" d="m118.13,57.5V14.34c0-4.42.38-4.69,4.42-4.31,1.26.11,2.02.49,2.02,1.91v46.92c0,1.25-.11,2.56.11,3.76.11.54.82,1.36,1.2,1.36,7.15-.11,14.46.49,21.44-.76,8.4-1.53,12.77-8.35,14.89-16.04,1.2-4.42.98-9.17,1.31-13.8.22-2.95.16-2.95,3.65-2.95s3.55,0,3.6,2.95c.16,6.98-.33,13.86-3,20.51-2.18,5.35-5.56,9.55-10.48,12.55-1.97,1.2-1.97,1.8.16,2.78,6.06,2.73,10.04,7.37,12.33,13.48.66,1.64,1.26,3.38,1.47,5.13.65,4.97,1.09,9.93,1.58,14.84.22,1.91-.71,2.45-2.51,2.51-4.58.22-4.69.16-4.75-4.58,0-1.64-.05-3.22-.11-4.86-.44-13.75-11.08-24.11-24.82-24.17-4.15,0-8.29-.06-12.44,0-3.44.05-3.71.27-3.76,3.71-.05,8.84,0,17.62-.05,26.46,0,3.38-.11,3.38-3.16,3.38s-3.22,0-3.22-3.38c.05-14.73.11-29.52.11-44.25Z"></path>
    <path class="cls-2" d="m76.72,64.1c7.2,0,14.4-.05,21.55,0,3.27,0,3.27.11,3.33,3.22.11,4.2.11,4.26-3.98,4.26-11.68.05-23.35,0-35.03,0-2.95,0-3.38.38-2.89,3,2.02,10.64,7.31,18.99,17.89,22.86,8.95,3.27,18.39-.06,24.23-6.88.33-.38.87-.82.93-1.31.11-.87,0-1.8-.05-2.67,2.35,0,4.64-.06,6.98.11.33,0,.76,1.15.82,1.75.11,1.42.06,2.89.06,4.31-.06,1.69.82,4.04-2.73,2.78-.71-.27-2.29,2.02-3.49,3.11-11.51,10.8-29.9,10.31-40.54-1.2-7.91-8.4-11.62-18.6-11.51-30.17.06-3.06.11-3.11,3.38-3.17,7.04-.05,14.02,0,21.06,0h0Z"></path>
    <path class="cls-2" d="m180.77,64.7c0-11.68-.06-23.35.05-35.03.05-4.86,1.04-9.49,3.87-13.64,3.87-5.57,9.38-7.36,15.82-6.98.6.05,1.53.93,1.64,1.53.27,1.2.06,2.51.11,3.76.11,1.64-.76,2.07-2.29,2.18-1.42.05-2.78.44-4.15.87-5.73,1.69-7.91,4.75-7.8,10.53,0,1.8.6,2.62,2.45,2.56,2.67-.11,5.4-.05,8.07,0q3.71.06,3.66,3.98v1.64c-.06,1.25-.6,1.96-1.96,1.91-2.13-.06-4.31,0-6.49,0-6.65.05-5.84-.76-5.84,5.62-.05,18.33,0,36.66,0,54.99v2.67q-.05,3.93-3.77,3.93c-3.27,0-3.33,0-3.38-3.22,0-12.55,0-24.93,0-37.32Z"></path>
    <path class="cls-2" d="m107.88,42.44c-1.15,1.42-2.18,2.89-3.44,4.04-.27.27-1.58-.33-2.18-.82-3.27-2.67-6.27-5.73-10.69-6.87-8.18-2.13-15.66-1.09-21.93,4.86-2.45,2.29-4.53,5.07-6.38,7.86-1.2,1.8-1.91,3.6-.76,6.38,1.09,2.56-3.11,2.35-4.75,3.71-.55.44-1.91,1.8-2.67.22-1.15-2.4-1.91-4.97-2.78-7.48-.11-.33.49-1.2.66-1.15,2.62.6,2.29-1.69,2.95-2.95,4.42-8.67,10.26-15.77,19.91-19.2,11.57-4.09,23.57.82,30.12,8.35.71.82,1.15,1.8,1.97,3.06Z"></path>
    <path class="cls-2" d="m218.2,74.9c0-9.17.05-18.33,0-27.5,0-2.89-1.04-3.76-3.49-2.51-2.73,1.42-5.29,1.31-8.18.93-3.88-.49-7.91-.22-11.84-.33-.55,0-1.04-.44-1.53-.66.38-.38.71-.93,1.14-1.04,6.44-1.2,12.88-2.35,19.37-3.38,1.85-.33,4.53-2.45,4.64-4.97.49-7.36,5.67-12.6,8.29-18.93.16-.44.82-.66,1.2-.98.11.49.38.98.38,1.47-.05,1.04-.16,2.18-.49,3.16-1.8,5.18-3.55,10.42-5.62,15.5-1.2,2.84.05,5.35,1.53,6.82,4.2,4.31,5.73,9.77,7.91,15,.82,1.96,1.86,3.87,2.73,5.84.16.38-.05.98-.05,1.47-.44-.16-1.15-.16-1.31-.49-3.33-6.06-8.89-10.75-11.18-17.51-.11-.33-.38-.55-.6-.82-.16.44-.44.87-.49,1.31-.06,3.6,0,7.2,0,10.8,0,14.02.05,28.04.05,42.07,0,.71.16,1.47,0,2.13-.22.87-.71,1.69-1.09,2.56-.44-.82-1.2-1.64-1.2-2.45-.11-9.17-.06-18.33-.06-27.5q-.16,0-.11,0Z"></path>
  </g>
  <g>
    <path class="cls-4" d="m79.56,141.68c1.8.44,3.44,1.91,3.44,4.31,0,1.8-.87,2.89-1.47,3.44-1.15,1.09-3,1.64-5.84,1.64-1.53,0-2.67-.11-3.38-.22v-16.91c.98-.22,2.51-.38,4.04-.38,5.24,0,6.11,2.56,6.11,4.31,0,1.64-1.04,3.06-2.84,3.77v.06h-.05Zm-3.16-.82c2.07,0,3.38-1.15,3.38-2.73,0-2.07-1.64-2.56-3.27-2.56-.87,0-1.36.06-1.69.11v5.18h1.58Zm-1.58,8.07c.38.06.87.11,1.58.11,2.07,0,3.87-.87,3.87-3.17s-1.96-3.11-3.93-3.11h-1.53v6.17Z"></path>
    <path class="cls-4" d="m88.24,150.85h-2.62v-18h2.62v18Z"></path>
    <path class="cls-4" d="m100.18,147.9c0,1.03,0,2.13.16,2.94h-2.35l-.16-1.42h-.05c-.71.98-1.91,1.69-3.44,1.69-2.29,0-3.65-1.69-3.65-3.6,0-3.06,2.67-4.58,6.93-4.58,0-.93,0-2.78-2.51-2.78-1.09,0-2.24.33-3,.87l-.55-1.75c.87-.55,2.35-1.04,3.98-1.04,3.66,0,4.64,2.4,4.64,5.02v4.64h0Zm-2.51-3.27c-2.02,0-4.42.38-4.42,2.56,0,1.36.87,1.97,1.8,1.97,1.42,0,2.56-1.09,2.56-2.51v-2.02h.05Z"></path>
    <path class="cls-4" d="m111.81,150.46c-.6.27-1.75.65-3.16.65-3.55,0-5.89-2.45-5.89-6.33s2.4-6.55,6.38-6.55c1.2,0,2.24.27,2.78.55l-.49,2.02c-.44-.22-1.15-.49-2.24-.49-2.4,0-3.76,1.96-3.76,4.42,0,2.73,1.58,4.31,3.76,4.31,1.04,0,1.75-.27,2.35-.49l.27,1.91Z"></path>
    <path class="cls-4" d="m124.41,150.85h-3.16l-3.55-5.67-.98,1.26v4.42h-2.62v-18h2.62v11.18h.05c.27-.49.65-1.03.93-1.42l3.06-4.15h3.06l-4.36,5.08,4.97,7.31Z"></path>
    <path class="cls-4" d="m140.23,150.85h-9.22v-17.13h2.62v14.95h6.6v2.18h0Z"></path>
    <path class="cls-4" d="m151.09,147.9c0,1.03,0,2.13.16,2.94h-2.35l-.16-1.42h-.05c-.71.98-1.91,1.69-3.44,1.69-2.29,0-3.66-1.69-3.66-3.6,0-3.06,2.67-4.58,6.93-4.58,0-.93,0-2.78-2.51-2.78-1.09,0-2.24.33-3,.87l-.55-1.75c.87-.55,2.35-1.04,3.98-1.04,3.66,0,4.64,2.4,4.64,5.02v4.64h0Zm-2.57-3.27c-2.02,0-4.42.38-4.42,2.56,0,1.36.87,1.97,1.8,1.97,1.42,0,2.56-1.09,2.56-2.51v-2.02h.05Z"></path>
    <path class="cls-4" d="m170.29,138.52l-3.76,12.39h-2.35l-1.58-5.45c-.38-1.31-.65-2.51-.93-3.93h-.05c-.27,1.48-.6,2.73-.98,3.98l-1.69,5.45h-2.35l-3.55-12.38h2.67l1.36,5.95c.27,1.31.6,2.67.82,3.93h.05c.27-1.26.65-2.67.98-3.93l1.69-5.95h2.13l1.64,5.78c.38,1.42.71,2.78.98,4.04h.06c.22-1.26.49-2.62.82-4.04l1.42-5.84h2.62s0,0,0,0Z"></path>
    <path class="cls-4" d="m196.04,133.72l-4.42,17.13h-2.73l-1.85-8.29c-.44-2.02-.76-3.71-.98-5.56h-.06c-.27,1.85-.66,3.55-1.15,5.56l-2.02,8.29h-2.73l-4.04-17.13h2.78l1.69,8.18c.44,2.13.82,4.2,1.09,6h.06c.27-1.85.76-3.88,1.25-6.06l1.96-8.13h2.62l1.8,8.18c.44,2.02.82,3.98,1.09,5.95h.05c.27-2.02.71-3.93,1.15-6.06l1.85-8.07h2.57Z"></path>
    <path class="cls-4" d="m199.32,136.6c-.87,0-1.53-.65-1.53-1.53s.65-1.53,1.53-1.53,1.53.66,1.53,1.53c0,.82-.6,1.53-1.53,1.53Zm1.31,14.24h-2.62v-12.39h2.62v12.39Z"></path>
    <path class="cls-4" d="m214.16,150.85h-2.62v-7.26c0-1.75-.6-3.22-2.35-3.22-1.26,0-2.67,1.04-2.67,3v7.42h-2.56v-8.89c0-1.36-.06-2.4-.11-3.49h2.29l.11,1.85h.06c.6-1.04,1.91-2.13,3.77-2.13s4.09,1.26,4.09,5.07v7.64h0Z"></path>
    <path class="cls-4" d="m227.74,147.57c0,1.15.05,2.45.11,3.27h-2.29l-.11-1.91h-.05c-.65,1.26-2.02,2.18-3.76,2.18-2.78,0-4.91-2.51-4.91-6.33,0-4.2,2.4-6.55,5.18-6.55,1.58,0,2.73.71,3.27,1.64h.06v-7.04h2.62v14.73h-.11Zm-2.62-4.09c0-2.02-1.26-3.22-2.73-3.22-2.02,0-3.11,1.96-3.11,4.42s1.09,4.31,3.06,4.31c1.69,0,2.78-1.47,2.78-3.22v-2.29Z"></path>
    <path class="cls-4" d="m231.4,138.52c0-1.36,0-3.33,1.36-4.75.87-.82,2.02-1.15,3-1.15.82,0,1.42.16,1.91.33l-.27,2.02c-.33-.11-.71-.27-1.31-.27-1.64,0-2.13,1.48-2.13,3.11v.65h2.73v1.96h-2.67v10.42h-2.62v-10.42h-1.64v-1.96h1.64v.06h0Z"></path>
    <path class="cls-4" d="m247.17,147.9c0,1.03,0,2.13.16,2.94h-2.35l-.16-1.42h-.06c-.71.98-1.91,1.69-3.44,1.69-2.29,0-3.66-1.69-3.66-3.6,0-3.06,2.67-4.58,6.93-4.58,0-.93,0-2.78-2.51-2.78-1.09,0-2.24.33-3,.87l-.55-1.75c.87-.55,2.35-1.04,3.98-1.04,3.65,0,4.64,2.4,4.64,5.02v4.64h0Zm-2.51-3.27c-2.02,0-4.42.38-4.42,2.56,0,1.36.87,1.97,1.8,1.97,1.42,0,2.56-1.09,2.56-2.51v-2.02h.06Z"></path>
    <path class="cls-4" d="m256.66,140.75c-.22-.06-.49-.06-.76-.06-1.75,0-2.84,1.42-2.84,3.6v6.55h-2.62v-8.57c0-1.42,0-2.62-.11-3.76h2.29l.11,2.29h.11c.55-1.58,1.85-2.51,3.22-2.51.27,0,.44,0,.65.06v2.4h-.06Z"></path>
    <path class="cls-4" d="m275.65,150.85h-2.56v-7.04c0-2.08-.66-3.44-2.24-3.44-1.2,0-2.4,1.09-2.4,2.89v7.64h-2.56v-7.42c0-1.75-.65-3.06-2.13-3.06-1.15,0-2.51,1.04-2.51,3v7.47h-2.56v-8.89c0-1.36-.06-2.4-.11-3.49h2.24l.11,1.8h.06c.6-1.04,1.75-2.07,3.6-2.07,1.58,0,2.78.87,3.27,2.29h.06c.82-1.36,2.02-2.29,3.82-2.29s3.87,1.25,3.87,5.18v7.42h.05Z"></path>
    <path class="cls-4" d="m292.23,150.46c-.6.27-1.75.65-3.17.65-3.55,0-5.89-2.45-5.89-6.33s2.4-6.55,6.38-6.55c1.2,0,2.24.27,2.78.55l-.49,2.02c-.44-.22-1.15-.49-2.24-.49-2.4,0-3.77,1.96-3.77,4.42,0,2.73,1.58,4.31,3.77,4.31,1.04,0,1.75-.27,2.35-.49l.27,1.91Z"></path>
    <path class="cls-4" d="m305.22,144.57c0,4.64-3,6.55-5.78,6.55-3.22,0-5.68-2.35-5.68-6.33s2.56-6.55,5.84-6.55,5.62,2.51,5.62,6.33Zm-5.73-4.42c-2.24,0-3.06,2.4-3.06,4.53,0,2.4,1.15,4.47,3.06,4.47s3.06-2.02,3.06-4.53c0-2.02-.87-4.47-3.06-4.47Z"></path>
    <path class="cls-4" d="m324.75,150.85h-2.56v-7.04c0-2.08-.65-3.44-2.24-3.44-1.2,0-2.4,1.09-2.4,2.89v7.64h-2.56v-7.42c0-1.75-.65-3.06-2.13-3.06-1.15,0-2.51,1.04-2.51,3v7.47h-2.57v-8.89c0-1.36-.05-2.4-.11-3.49h2.24l.11,1.8h.05c.6-1.04,1.75-2.07,3.6-2.07,1.58,0,2.78.87,3.27,2.29h.05c.82-1.36,2.02-2.29,3.82-2.29s3.87,1.25,3.87,5.18v7.42h.05Z"></path>
    <path class="cls-4" d="m344.94,150.85h-2.57v-7.04c0-2.08-.65-3.44-2.24-3.44-1.2,0-2.4,1.09-2.4,2.89v7.64h-2.56v-7.42c0-1.75-.65-3.06-2.13-3.06-1.15,0-2.51,1.04-2.51,3v7.47h-2.57v-8.89c0-1.36-.05-2.4-.11-3.49h2.24l.11,1.8h.05c.6-1.04,1.75-2.07,3.6-2.07,1.58,0,2.78.87,3.27,2.29h.06c.82-1.36,2.02-2.29,3.82-2.29s3.87,1.25,3.87,5.18v7.42h.05Z"></path>
    <path class="cls-4" d="m358.25,147.3c0,1.36.05,2.56.11,3.55h-2.29l-.11-1.8h-.05c-.49.87-1.75,2.02-3.71,2.02-2.13,0-3.98-1.31-3.98-5.29v-7.37h2.62v6.93c0,2.13.6,3.55,2.29,3.55,1.2,0,2.56-.93,2.56-2.78v-7.64h2.61v8.84h-.05Z"></path>
    <path class="cls-4" d="m371.78,150.85h-2.62v-7.26c0-1.75-.6-3.22-2.35-3.22-1.26,0-2.67,1.04-2.67,3v7.42h-2.62v-8.89c0-1.36-.06-2.4-.11-3.49h2.29l.11,1.85h.06c.6-1.04,1.91-2.13,3.76-2.13s4.09,1.26,4.09,5.07v7.64h.05s0,0,0,0Z"></path>
    <path class="cls-4" d="m376.36,136.6c-.87,0-1.53-.65-1.53-1.53s.65-1.53,1.53-1.53,1.53.66,1.53,1.53c0,.82-.6,1.53-1.53,1.53Zm1.31,14.24h-2.62v-12.39h2.62v12.39Z"></path>
    <path class="cls-4" d="m381.55,136.23l2.57-.82v3.06h2.95v1.96h-2.95v6.28c0,1.53.49,2.29,1.58,2.29.49,0,.82-.06,1.15-.16l.11,2.02c-.44.16-1.15.27-2.02.27-1.03,0-1.91-.33-2.45-.93-.65-.65-.93-1.69-.93-3.33v-6.44h-1.75v-1.96h1.75v-2.23h0Z"></path>
    <path class="cls-4" d="m399.06,138.52l-3,8.56c-1.47,4.04-2.51,6.33-3.98,7.8-1.14,1.04-2.29,1.48-2.89,1.58l-.66-2.18c2.67-.98,3.65-3.49,3.65-3.82,0-.11,0-.27-.11-.55l-4.26-11.4h2.84l2.24,6.93c.27.82.49,1.74.65,2.45h.06c.17-.71.44-1.64.65-2.45l2.02-6.93h2.78Z"></path>
    <path class="cls-4" d="m408.61,140.21c.76-1.25,2.02-2.02,3.77-2.02,2.84,0,4.8,2.51,4.8,6.27,0,4.53-2.62,6.6-5.18,6.6-1.58,0-2.83-.65-3.65-2.13h-.05l-.11,1.85h-2.35c.05-.82.11-2.18.11-3.27v-14.68h2.62l.06,7.37h0Zm-.05,5.73c0,1.58,1.15,3.06,2.84,3.06,2.02,0,3.11-1.75,3.11-4.42,0-2.35-1.04-4.31-3.06-4.31-1.63,0-2.84,1.58-2.84,3.22v2.45h-.05Z"></path>
    <path class="cls-4" d="m428.69,150.35c-.87.38-2.24.76-3.93.76-3.71,0-5.89-2.51-5.89-6.27s2.07-6.6,5.56-6.6,4.86,2.89,4.86,5.95c0,.44,0,.76-.06,1.09h-7.86c.06,2.78,1.8,3.82,3.77,3.82,1.36,0,2.29-.27,3.11-.6l.44,1.85Zm-1.8-6.93c0-1.48-.6-3.33-2.56-3.33s-2.73,1.91-2.84,3.33h5.4Z"></path>
    <path class="cls-4" d="m442.05,150.85h-2.62v-7.26c0-1.75-.6-3.22-2.34-3.22-1.25,0-2.67,1.04-2.67,3v7.42h-2.62v-8.89c0-1.36-.06-2.4-.11-3.49h2.29l.11,1.85h.05c.6-1.04,1.91-2.13,3.77-2.13s4.09,1.26,4.09,5.07v7.64h.05s0,0,0,0Z"></path>
    <path class="cls-4" d="m454.38,150.35c-.87.38-2.24.76-3.93.76-3.71,0-5.89-2.51-5.89-6.27s2.07-6.6,5.57-6.6,4.86,2.89,4.86,5.95c0,.44,0,.76-.06,1.09h-7.86c.06,2.78,1.8,3.82,3.77,3.82,1.36,0,2.29-.27,3.11-.6l.44,1.85Zm-1.86-6.93c0-1.48-.6-3.33-2.57-3.33s-2.73,1.91-2.84,3.33h5.4Z"></path>
    <path class="cls-4" d="m460.44,150.85h-2.62v-10.42h-1.64v-1.96h1.64v-.65c0-3,1.85-5.18,5.45-5.18,1.09,0,2.45.33,3.11.76l-.6,1.96c-.6-.33-1.53-.65-2.51-.65-2.89,0-2.89,2.29-2.89,3.76h6.93v12.39h-2.56v-10.42h-4.31v10.42h0Z"></path>
    <path class="cls-4" d="m471.19,136.23l2.56-.82v3.06h2.95v1.96h-2.95v6.28c0,1.53.49,2.29,1.58,2.29.49,0,.82-.06,1.15-.16l.11,2.02c-.44.16-1.15.27-2.02.27-1.04,0-1.91-.33-2.46-.93-.65-.65-.93-1.69-.93-3.33v-6.44h-1.75v-1.96h1.75v-2.24h0Z"></path>
    <path class="cls-4" d="m484.28,138.52c0-1.36,0-3.33,1.36-4.75.87-.82,2.02-1.15,3-1.15.82,0,1.42.16,1.91.33l-.27,2.02c-.32-.11-.71-.27-1.31-.27-1.64,0-2.13,1.48-2.13,3.11v.65h2.73v1.96h-2.67v10.42h-2.62v-10.42h-1.64v-1.96h1.64v.06h0Z"></path>
    <path class="cls-4" d="m501.47,147.3c0,1.36.05,2.56.11,3.55h-2.29l-.11-1.8h-.05c-.49.87-1.75,2.02-3.71,2.02-2.13,0-3.98-1.31-3.98-5.29v-7.37h2.62v6.93c0,2.13.6,3.55,2.29,3.55,1.2,0,2.56-.93,2.56-2.78v-7.64h2.62v8.84h-.05Z"></path>
    <path class="cls-4" d="m515,150.85h-2.62v-7.26c0-1.75-.6-3.22-2.35-3.22-1.25,0-2.67,1.04-2.67,3v7.42h-2.62v-8.89c0-1.36-.05-2.4-.11-3.49h2.29l.11,1.85h.06c.6-1.04,1.91-2.13,3.76-2.13s4.09,1.26,4.09,5.07v7.64h.05s0,0,0,0Z"></path>
    <path class="cls-4" d="m528.58,147.57c0,1.15.05,2.45.11,3.27h-2.29l-.11-1.91h-.05c-.65,1.26-2.02,2.18-3.76,2.18-2.78,0-4.91-2.51-4.91-6.33,0-4.2,2.4-6.55,5.18-6.55,1.58,0,2.73.71,3.27,1.64h.05v-7.04h2.62v14.73h-.11Zm-2.56-4.09c0-2.02-1.26-3.22-2.73-3.22-2.02,0-3.11,1.96-3.11,4.42s1.09,4.31,3.06,4.31c1.69,0,2.78-1.47,2.78-3.22v-2.29h0Z"></path>
  </g>
  <g>
    <g>
      <path class="cls-2" d="m333.78,37.33v-11.68h6.08v1.48h-4.31v3.6h4v1.47h-4v5.13h-1.77Z"></path>
      <path class="cls-2" d="m348.59,34.91c0,.95.05,1.74.08,2.41h-1.56l-.09-1.22h-.05c-.35.58-1.18,1.39-2.53,1.39-1.45,0-2.72-.9-2.72-3.59v-5.01h1.77v4.72c0,1.45.41,2.41,1.57,2.41.81,0,1.76-.64,1.76-1.91v-5.21h1.77v6h0Z"></path>
      <path class="cls-2" d="m357.81,37.33h-1.77v-4.93c0-1.19-.4-2.2-1.6-2.2-.87,0-1.8.72-1.8,2.06v5.07h-1.77v-6.05c0-.93-.03-1.65-.06-2.37h1.54l.09,1.25h.05c.4-.72,1.28-1.43,2.55-1.43s2.78.86,2.78,3.45v5.14h0Z"></path>
      <path class="cls-2" d="m367.07,35.08c0,.76.03,1.66.06,2.24h-1.56l-.09-1.31h-.05c-.44.86-1.36,1.48-2.55,1.48-1.91,0-3.36-1.69-3.36-4.29,0-2.86,1.63-4.47,3.51-4.47,1.08,0,1.86.49,2.23,1.13h.03v-4.78h1.77v10h0Zm-1.77-2.76c0-1.37-.87-2.18-1.86-2.18-1.36,0-2.11,1.34-2.11,3.01s.73,2.92,2.08,2.92c1.15,0,1.89-1.01,1.89-2.18v-1.56Z"></path>
      <path class="cls-2" d="m375.49,36.99c-.59.28-1.53.5-2.67.5-2.53,0-4-1.69-4-4.26s1.4-4.5,3.79-4.5,3.31,1.97,3.31,4.05c0,.29-.02.53-.05.75h-5.34c.05,1.89,1.22,2.61,2.55,2.61.93,0,1.57-.17,2.12-.4l.29,1.25Zm-1.25-4.73c.02-1.01-.4-2.26-1.76-2.26s-1.85,1.28-1.94,2.26h3.7Z"></path>
      <path class="cls-2" d="m384.65,35.08c0,.76.03,1.66.06,2.24h-1.56l-.09-1.31h-.05c-.44.86-1.36,1.48-2.55,1.48-1.91,0-3.36-1.69-3.36-4.29,0-2.86,1.63-4.47,3.51-4.47,1.08,0,1.86.49,2.23,1.13h.03v-4.78h1.77v10h0Zm-1.77-2.76c0-1.37-.87-2.18-1.86-2.18-1.36,0-2.11,1.34-2.11,3.01s.73,2.92,2.08,2.92c1.14,0,1.89-1.01,1.89-2.18v-1.56Z"></path>
      <path class="cls-2" d="m392.14,30.09c.5-.86,1.37-1.36,2.55-1.36,1.92,0,3.25,1.69,3.25,4.26,0,3.07-1.79,4.5-3.53,4.5-1.08,0-1.92-.44-2.49-1.43h-.05l-.09,1.27h-1.51c.03-.57.06-1.48.06-2.24v-10h1.77v5.01h.03Zm-.03,3.91c0,1.07.76,2.08,1.92,2.08,1.36,0,2.11-1.21,2.11-3.01,0-1.59-.69-2.92-2.09-2.92-1.11,0-1.94,1.08-1.94,2.2v1.65h0Z"></path>
      <path class="cls-2" d="m406.34,28.91l-2.03,5.83c-.99,2.76-1.69,4.32-2.7,5.3-.76.7-1.54.99-1.95,1.08l-.46-1.5c1.83-.66,2.49-2.37,2.49-2.6,0-.09-.02-.2-.09-.37l-2.89-7.76h1.94l1.53,4.73c.17.55.34,1.19.46,1.68h.05c.12-.49.29-1.11.44-1.68l1.36-4.73h1.86Z"></path>
    </g>
    <g>
      <g>
        <path class="cls-5" d="m392.57,68.72c-.86-.53-1.95-.97-3.26-1.32l-2.39-.64c-1.11-.31-1.96-.68-2.55-1.1-.59-.42-.89-1.04-.89-1.87s.37-1.43,1.1-1.91c.73-.48,1.71-.72,2.93-.72s2.17.26,3.01.79c.84.53,1.43,1.35,1.76,2.46l2.53-.94c-.33-1.09-.83-1.99-1.5-2.71-.67-.71-1.49-1.26-2.48-1.64-.99-.38-2.1-.57-3.34-.57-1.39,0-2.6.23-3.65.69-1.05.46-1.86,1.11-2.44,1.93-.58.82-.87,1.77-.87,2.84,0,.89.19,1.68.57,2.39.38.7.96,1.3,1.73,1.8.78.5,1.72.91,2.83,1.22l2.39.64c1,.26,1.8.54,2.41.83.61.3,1.06.63,1.35,1.01.29.38.43.82.43,1.32,0,.83-.41,1.5-1.22,2-.81.5-1.91.75-3.27.75s-2.54-.35-3.45-1.04c-.92-.69-1.56-1.59-1.93-2.68l-2.5,1.05c.35,1.07.89,2.01,1.62,2.8.73.8,1.63,1.41,2.69,1.83,1.06.43,2.25.64,3.57.64,1.52,0,2.83-.24,3.94-.71,1.11-.47,1.97-1.12,2.57-1.96.6-.83.9-1.81.9-2.94,0-.91-.21-1.71-.64-2.41-.43-.7-1.07-1.32-1.93-1.85h0Z"></path>
        <path class="cls-5" d="m400.21,67.6c.39-.41.84-.72,1.35-.93.51-.21,1.04-.32,1.6-.32.91,0,1.71.22,2.41.65.7.43,1.26,1.18,1.67,2.23l2.33-1.11c-.37-1.02-.89-1.84-1.57-2.46-.68-.62-1.42-1.07-2.25-1.35-.82-.28-1.69-.42-2.59-.42-1,0-1.92.18-2.76.53-.84.35-1.58.85-2.22,1.5-.64.65-1.13,1.42-1.47,2.32-.34.9-.51,1.89-.51,2.98,0,1.44.3,2.72.9,3.82.6,1.1,1.43,1.96,2.48,2.58,1.05.62,2.25.93,3.58.93.91,0,1.77-.14,2.59-.42.82-.28,1.57-.73,2.25-1.36.67-.63,1.2-1.44,1.57-2.44l-2.33-1.11c-.41,1.04-.96,1.78-1.67,2.22-.7.44-1.51.67-2.41.67-.76,0-1.46-.18-2.1-.55-.64-.37-1.15-.92-1.53-1.65-.38-.73-.57-1.62-.57-2.68,0-.8.11-1.5.33-2.11.22-.61.53-1.12.92-1.53h0Z"></path>
        <path class="cls-5" d="m421.1,64.83c-1.07-.61-2.3-.92-3.69-.92-1.02,0-1.96.18-2.83.53-.87.35-1.63.86-2.28,1.51-.65.66-1.15,1.43-1.5,2.33-.35.9-.53,1.88-.53,2.96,0,1.44.31,2.72.93,3.83.62,1.11,1.47,1.98,2.55,2.59,1.08.62,2.31.93,3.68.93,1.02,0,1.96-.18,2.83-.54.87-.36,1.63-.86,2.28-1.51.65-.65,1.15-1.42,1.5-2.32.35-.9.53-1.89.53-2.98,0-1.46-.31-2.74-.93-3.84-.62-1.1-1.47-1.96-2.54-2.57h0Zm.36,8.46c-.22.61-.53,1.12-.92,1.54-.39.42-.85.74-1.39.96-.54.22-1.12.33-1.75.33-.81,0-1.55-.19-2.21-.58-.66-.39-1.17-.95-1.55-1.68-.38-.73-.57-1.6-.57-2.62,0-.78.11-1.46.32-2.05.21-.59.51-1.1.9-1.53.39-.43.85-.74,1.39-.96.54-.21,1.11-.32,1.72-.32.85,0,1.6.19,2.26.58.66.39,1.17.94,1.55,1.67.38.72.57,1.59.57,2.61,0,.76-.11,1.44-.33,2.05h0Z"></path>
        <path class="cls-5" d="m438.37,59.55l-2.75,1.67v2.97h-5.74v-4.63l-2.75,1.67v2.97h-2.61v2.28h2.61v7.46c0,.85.16,1.61.49,2.28.32.67.8,1.18,1.43,1.54.63.36,1.41.54,2.33.54h1.75v-2.39h-1.44c-.63,0-1.09-.18-1.37-.56-.29-.37-.43-.91-.43-1.61v-7.27h5.74v7.46c0,.85.16,1.61.49,2.28.32.67.8,1.18,1.43,1.54.63.36,1.41.54,2.33.54h1.75v-2.39h-1.44c-.63,0-1.09-.18-1.37-.56-.29-.37-.43-.91-.43-1.61v-7.27h3.25v-2.28h-3.25v-4.63h0Z"></path>
        <rect class="cls-5" x="443.48" y="64.19" width="2.72" height="14.1"></rect>
        <path class="cls-5" d="m446.17,58.71c-.37-.32-.81-.49-1.33-.49s-.96.16-1.32.49c-.36.32-.54.76-.54,1.32s.18.97.54,1.29c.36.32.8.49,1.32.49s.96-.16,1.33-.49c.37-.32.55-.75.55-1.29s-.18-.99-.55-1.32Z"></path>
        <path class="cls-5" d="m458.79,71.8c-.71-.68-1.81-1.2-3.29-1.57l-1.39-.33c-.55-.15-1.05-.31-1.47-.47-.43-.17-.77-.37-1.03-.61-.26-.24-.39-.55-.39-.94,0-.48.25-.87.74-1.18.49-.31,1.13-.46,1.93-.46s1.54.18,2.18.54c.64.36,1.09.98,1.35,1.85l2.28-.83c-.24-.85-.64-1.56-1.19-2.14-.55-.57-1.23-1.01-2.01-1.3-.79-.3-1.65-.44-2.59-.44-1.05,0-1.98.17-2.79.51-.8.34-1.43.81-1.89,1.42-.45.6-.68,1.29-.68,2.07,0,1.04.34,1.91,1.03,2.62.68.71,1.78,1.25,3.3,1.62l1.42.36c1,.22,1.73.48,2.21.76.47.29.71.69.71,1.21s-.28.95-.83,1.29c-.55.34-1.32.51-2.3.51-.56,0-1.09-.09-1.61-.28-.52-.18-.97-.47-1.35-.85-.38-.38-.66-.86-.85-1.43l-2.22.97c.33.91.8,1.64,1.39,2.21.59.56,1.29.99,2.08,1.26.8.28,1.65.42,2.55.42,1.18,0,2.21-.18,3.08-.54.87-.36,1.54-.86,2.01-1.48.47-.63.71-1.35.71-2.16,0-1.05-.36-1.92-1.07-2.59h0Z"></path>
        <path class="cls-5" d="m471.24,64.58c-.78-.44-1.67-.67-2.69-.67-.96,0-1.86.25-2.71.76-.6.36-1.09.9-1.46,1.6v-7.41h-2.72v19.42h2.72v-8.35c0-1.13.33-2.01.98-2.65.66-.64,1.5-.96,2.54-.96.92,0,1.67.31,2.25.94.57.63.86,1.48.86,2.55v8.46h2.75v-8.91c0-1.11-.23-2.08-.68-2.9-.45-.82-1.07-1.46-1.85-1.9h0Z"></path>
        <path class="cls-5" d="m488.75,60.54c-1.28-1.12-3.03-1.68-5.27-1.68h-7.16v19.42h2.86v-6.88h4.33c1.48,0,2.75-.25,3.82-.75,1.06-.5,1.89-1.22,2.47-2.16.58-.94.87-2.05.87-3.33,0-1.96-.64-3.5-1.91-4.62h0Zm-2.25,7.4c-.78.63-1.86.94-3.25.94h-4.08v-7.44h4.08c1.39,0,2.47.31,3.25.93.78.62,1.17,1.55,1.17,2.79s-.39,2.15-1.17,2.77Z"></path>
        <path class="cls-5" d="m501.72,64.83c-1.07-.61-2.3-.92-3.69-.92-1.02,0-1.96.18-2.83.53-.87.35-1.63.86-2.28,1.51-.65.66-1.15,1.43-1.5,2.33-.35.9-.53,1.88-.53,2.96,0,1.44.31,2.72.93,3.83.62,1.11,1.47,1.98,2.55,2.59,1.08.62,2.31.93,3.68.93,1.02,0,1.96-.18,2.83-.54.87-.36,1.63-.86,2.28-1.51.65-.65,1.15-1.42,1.5-2.32.35-.9.53-1.89.53-2.98,0-1.46-.31-2.74-.93-3.84-.62-1.1-1.47-1.96-2.54-2.57h0Zm.36,8.46c-.22.61-.53,1.12-.92,1.54-.39.42-.85.74-1.39.96-.54.22-1.12.33-1.75.33-.81,0-1.55-.19-2.21-.58-.66-.39-1.17-.95-1.55-1.68-.38-.73-.57-1.6-.57-2.62,0-.78.11-1.46.32-2.05.21-.59.51-1.1.9-1.53.39-.43.85-.74,1.39-.96.54-.21,1.11-.32,1.72-.32.85,0,1.6.19,2.26.58.66.39,1.17.94,1.55,1.67.38.72.57,1.59.57,2.61,0,.76-.11,1.44-.33,2.05h0Z"></path>
        <path class="cls-5" d="m520.52,71.76c-.13.41-.25.81-.36,1.21-.11.4-.23.84-.36,1.32-.33-1.04-.6-1.87-.8-2.5l-2.41-7.6h-2.36l-2.39,7.58c-.13.43-.25.84-.37,1.23-.12.4-.25.84-.4,1.32-.15-.48-.28-.92-.39-1.32-.11-.4-.23-.81-.36-1.23l-2.25-7.58h-2.89l4.47,14.1h2.58l2.39-7.58c.2-.61.45-1.43.75-2.47.35,1.04.62,1.86.8,2.47l2.39,7.58h2.61l4.44-14.1h-2.83l-2.25,7.58h0Z"></path>
        <path class="cls-5" d="m535.73,64.81c-.98-.6-2.1-.9-3.36-.9-1,0-1.91.17-2.73.51-.82.34-1.54.84-2.15,1.48-.61.65-1.08,1.42-1.4,2.32-.32.9-.49,1.9-.49,3.01,0,1.46.3,2.74.89,3.84.59,1.1,1.41,1.96,2.44,2.58,1.04.62,2.23.93,3.58.93.81,0,1.6-.12,2.37-.35.77-.23,1.47-.61,2.11-1.14.64-.53,1.19-1.21,1.65-2.04l-2.11-1.3c-.3.57-.65,1.04-1.05,1.4-.41.36-.86.62-1.36.78-.5.16-1.04.24-1.61.24-.8,0-1.51-.18-2.14-.55-.63-.37-1.12-.92-1.48-1.65-.29-.58-.46-1.28-.52-2.1h10.49c.02-.13.03-.26.03-.39v-.36c0-1.44-.28-2.71-.85-3.79-.56-1.08-1.34-1.92-2.32-2.52h0Zm-6.31,2.69c.34-.43.76-.76,1.26-.97.5-.21,1.05-.32,1.66-.32,1.11,0,2.02.41,2.73,1.22.51.58.84,1.39.98,2.41h-7.6c.04-.27.1-.52.17-.76.18-.62.45-1.15.79-1.58h0Z"></path>
        <path class="cls-5" d="m547.19,63.91c-.83,0-1.58.21-2.23.64-.66.43-1.19,1.07-1.6,1.94v-2.3h-2.72v14.1h2.72v-7.52c0-1.2.3-2.16.92-2.89.61-.72,1.39-1.08,2.33-1.08h1.39v-2.89h-.8Z"></path>
      </g>
      <g>
        <path class="cls-5" d="m387.25,93.73c.62-.29,1.1-.72,1.45-1.27.35-.55.53-1.19.53-1.93,0-1.17-.37-2.07-1.11-2.72-.74-.65-1.75-.97-3.02-.97h-4.59v11.9h1.51v-4.57h2.44l3.51,4.57h1.85l-3.69-4.66c.4-.07.77-.19,1.12-.35h0Zm-5.23-5.49h2.96c.85,0,1.5.19,1.96.58.46.39.69.96.69,1.72s-.23,1.32-.68,1.71c-.45.39-1.11.59-1.97.59h-2.96v-4.59Z"></path>
        <path class="cls-5" d="m396.31,90.55c-.59-.36-1.26-.54-2.02-.54-.6,0-1.15.1-1.65.31-.5.21-.93.51-1.3.89-.37.39-.65.85-.86,1.39-.2.54-.31,1.16-.31,1.84,0,.9.18,1.68.54,2.35.36.67.85,1.19,1.47,1.56.62.37,1.33.56,2.15.56.49,0,.96-.07,1.42-.21.46-.14.89-.37,1.28-.67.4-.31.74-.72,1.02-1.26l-1.1-.68c-.2.35-.44.64-.7.87-.26.23-.55.39-.88.49-.32.1-.66.15-1.01.15-.53,0-1-.12-1.39-.36-.4-.24-.72-.59-.96-1.06-.2-.39-.32-.86-.35-1.4h6.53c.01-.06.02-.12.02-.2v-.22c0-.87-.17-1.64-.51-2.29-.34-.66-.8-1.16-1.39-1.52h0Zm-3.94,1.56c.23-.28.5-.49.82-.63.32-.14.68-.21,1.08-.21.71,0,1.3.26,1.77.77.35.39.57.93.65,1.62h-4.98c.03-.19.07-.38.13-.55.12-.39.3-.73.53-1h0Z"></path>
        <path class="cls-5" d="m405.32,90.42c-.49-.27-1.04-.41-1.67-.41-.59,0-1.14.15-1.67.45-.4.23-.71.57-.95,1.03v-1.33h-1.46v8.58h1.46v-5.1c0-.72.22-1.29.65-1.71.43-.41.99-.62,1.67-.62.61,0,1.11.2,1.49.61.38.41.57.96.57,1.67v5.15h1.46v-5.37c0-.68-.14-1.27-.41-1.78-.27-.51-.65-.9-1.14-1.17h0Z"></path>
        <path class="cls-5" d="m414.32,90.55c-.59-.36-1.26-.54-2.02-.54-.6,0-1.15.1-1.65.31-.5.21-.93.51-1.3.89-.37.39-.65.85-.86,1.39-.2.54-.31,1.16-.31,1.84,0,.9.18,1.68.54,2.35.36.67.85,1.19,1.47,1.56.62.37,1.33.56,2.15.56.49,0,.96-.07,1.42-.21.46-.14.89-.37,1.28-.67.4-.31.74-.72,1.02-1.26l-1.1-.68c-.2.35-.44.64-.7.87-.26.23-.55.39-.88.49-.32.1-.66.15-1.01.15-.53,0-1-.12-1.39-.36-.4-.24-.72-.59-.96-1.06-.2-.39-.32-.86-.35-1.4h6.53c.01-.06.02-.12.02-.2v-.22c0-.87-.17-1.64-.51-2.29-.34-.66-.8-1.16-1.39-1.52h0Zm-3.94,1.56c.23-.28.5-.49.82-.63.32-.14.68-.21,1.08-.21.71,0,1.3.26,1.77.77.35.39.57.93.65,1.62h-4.98c.03-.19.07-.38.13-.55.12-.39.3-.73.53-1h0Z"></path>
        <path class="cls-5" d="m425.78,95.08c-.07.25-.14.49-.2.73-.07.24-.15.5-.24.8-.2-.63-.37-1.14-.49-1.51l-1.6-4.93h-1.22l-1.58,4.91c-.08.26-.16.51-.23.74-.07.23-.16.5-.25.79-.09-.29-.17-.56-.25-.79-.07-.23-.15-.48-.23-.74l-1.5-4.91h-1.53l2.75,8.58h1.34l1.6-4.93c.12-.36.28-.86.46-1.48.2.62.36,1.12.48,1.48l1.58,4.93h1.38l2.74-8.58h-1.51l-1.5,4.91Z"></path>
        <path class="cls-5" d="m435.38,90.79c-.36-.27-.76-.47-1.21-.59-.45-.12-.92-.19-1.4-.19-.78,0-1.48.18-2.09.53-.61.35-1.06.87-1.34,1.56l1.16.63c.17-.43.45-.77.85-1.03.4-.25.87-.38,1.41-.38.42,0,.8.07,1.16.21.35.14.64.37.86.7.22.32.33.76.33,1.3v1.06c-.08-.09-.16-.18-.25-.26-.54-.46-1.33-.7-2.35-.7-.62,0-1.2.1-1.72.31-.53.2-.95.5-1.27.89-.32.39-.48.87-.48,1.44s.16,1.05.47,1.44c.31.4.73.7,1.25.9.52.2,1.09.31,1.7.31,1.03,0,1.82-.24,2.38-.71.11-.1.21-.21.31-.32v.87h1.43v-5.37c0-.6-.11-1.11-.32-1.54-.22-.42-.5-.77-.86-1.05h0Zm-.9,6.59c-.44.25-.98.38-1.62.38s-1.21-.12-1.66-.37c-.45-.25-.67-.62-.67-1.12s.22-.89.67-1.13c.45-.24,1-.37,1.66-.37s1.19.13,1.62.38c.44.25.65.63.65,1.11s-.22.86-.65,1.11h0Z"></path>
        <path class="cls-5" d="m444.77,90.57c-.6-.37-1.28-.56-2.04-.56-.62,0-1.16.13-1.61.38-.45.25-.83.59-1.13,1.02-.09.13-.17.26-.25.4v-4.96h-1.46v11.9h1.46v-1.64c.07.13.15.26.24.39.29.42.67.76,1.13,1.02.46.25,1,.38,1.62.38.57,0,1.09-.11,1.57-.32.48-.22.9-.52,1.27-.92.36-.4.64-.87.84-1.41.2-.54.3-1.14.3-1.8,0-.87-.17-1.64-.52-2.31-.35-.67-.82-1.19-1.42-1.56h0Zm.26,5.19c-.13.39-.32.72-.57.99-.25.27-.54.47-.88.61-.34.14-.71.21-1.1.21-.82,0-1.48-.27-2-.82-.52-.55-.77-1.32-.77-2.3,0-.49.07-.92.2-1.3.14-.38.33-.71.58-.99.25-.28.54-.48.88-.62.33-.14.71-.2,1.11-.2.8,0,1.46.27,1.98.82.52.55.77,1.31.77,2.29,0,.49-.07.93-.2,1.32h0Z"></path>
        <path class="cls-5" d="m449.76,97.17c-.15-.19-.22-.46-.22-.8v-9.52h-1.46v9.6c0,.44.08.84.24,1.18.16.35.41.62.75.82.34.2.75.3,1.24.3h.92v-1.29h-.71c-.35,0-.6-.1-.75-.29h0Z"></path>
        <path class="cls-5" d="m457.59,90.55c-.59-.36-1.26-.54-2.02-.54-.6,0-1.15.1-1.65.31-.5.21-.93.51-1.3.89-.37.39-.65.85-.86,1.39-.2.54-.31,1.16-.31,1.84,0,.9.18,1.68.54,2.35.36.67.85,1.19,1.47,1.56.62.37,1.33.56,2.15.56.49,0,.96-.07,1.42-.21.46-.14.89-.37,1.28-.67.4-.31.74-.72,1.02-1.26l-1.1-.68c-.2.35-.44.64-.7.87-.26.23-.55.39-.88.49-.32.1-.66.15-1.01.15-.53,0-1-.12-1.39-.36-.4-.24-.72-.59-.96-1.06-.2-.39-.32-.86-.35-1.4h6.53c.01-.06.02-.12.02-.2v-.22c0-.87-.17-1.64-.51-2.29-.34-.66-.8-1.16-1.39-1.52h0Zm-3.94,1.56c.23-.28.5-.49.82-.63.32-.14.68-.21,1.08-.21.71,0,1.3.26,1.77.77.35.39.57.93.65,1.62h-4.98c.03-.19.07-.38.13-.55.12-.39.3-.73.53-1Z"></path>
        <path class="cls-5" d="m466.76,94.86c-.43-.4-1.09-.72-1.99-.94l-.87-.22c-.33-.09-.63-.19-.9-.29-.27-.1-.49-.24-.66-.4-.17-.16-.25-.38-.25-.64,0-.32.16-.58.48-.78.32-.2.74-.31,1.26-.31s.95.12,1.37.35c.41.23.7.62.86,1.16l1.24-.46c-.14-.52-.38-.95-.72-1.29-.35-.34-.76-.6-1.23-.77-.48-.18-.98-.26-1.51-.26-.65,0-1.21.1-1.68.31-.48.2-.85.48-1.11.84-.27.36-.4.77-.4,1.23,0,.61.2,1.13.6,1.56.4.43,1.06.76,1.96.99l.87.2c.65.16,1.12.33,1.43.52.31.19.46.45.46.79s-.18.64-.54.86c-.36.22-.86.33-1.5.33-.34,0-.67-.05-.99-.16-.32-.11-.59-.28-.83-.52s-.42-.54-.56-.9l-1.22.53c.2.54.49.99.85,1.33.36.34.78.59,1.26.76.48.16.98.25,1.51.25.71,0,1.33-.11,1.85-.32.52-.22.92-.51,1.21-.89.28-.38.42-.81.42-1.28,0-.63-.22-1.15-.65-1.56h0Z"></path>
      </g>
      <g>
        <path class="cls-3" d="m354.91,71.38c0,1.74.57,4.09,2.45,5.97,3.03,3.03,7.15,3.03,9.78,1.6,3.21-1.75,10.45-6.98,2.94-28.67,0,10.24-15.17,11.28-15.17,21.1h0Z"></path>
        <path class="cls-6" d="m361.82,59.24c-.5-2.69-1.3-5.43-2.49-8.97,0,10.24-15.17,11.28-15.17,21.1,0,1.74.57,4.09,2.45,5.97,3.03,3.03,7.19,3.03,9.78,1.6-6.04-6.43-3.91-13.88,5.43-19.71h0Z"></path>
        <path class="cls-5" d="m351.07,59.24c-.5-2.69-1.3-5.43-2.49-8.97,0,10.24-15.17,11.28-15.17,21.1,0,5.04,4.08,7.25,4.08,7.25,0,0-1.02,3.7-.39,8.22l1.95-.32c-.95-3.31-.37-6.91-.31-7.27,2.49,1,5.06.7,6.9-.31-6.04-6.43-3.91-13.87,5.43-19.71h0Z"></path>
      </g>
    </g>
  </g>
</svg>
