<?xml version="1.0" encoding="utf-8"?>
<!-- Generator: Adobe Illustrator 16.0.0, SVG Export Plug-In . SVG Version: 6.00 Build 0)  -->
<!DOCTYPE svg PUBLIC "-//W3C//DTD SVG 1.0//EN" "http://www.w3.org/TR/2001/REC-SVG-20010904/DTD/svg10.dtd">
<svg version="1.0" id="Layer_1" xmlns="http://www.w3.org/2000/svg" xmlns:xlink="http://www.w3.org/1999/xlink" x="0px" y="0px"
	 width="348.209px" height="193.111px" viewBox="0 0 348.209 193.111" enable-background="new 0 0 348.209 193.111"
	 xml:space="preserve">
<g>
	<g>
		<path fill="#003D4D" d="M5.482,188.979v-5.839l-5.459-8.218h2.823l3.879,6.027l3.836-6.027h2.825l-5.438,8.218v5.839H5.482z"/>
		<path fill="#003D4D" d="M11.593,183.877c0-2.908,2.003-5.332,5.228-5.332c3.267,0,5.248,2.424,5.248,5.332
			c0,2.931-1.981,5.356-5.248,5.356C13.596,189.233,11.593,186.808,11.593,183.877z M19.772,183.877
			c0-1.791-1.055-3.372-2.951-3.372c-1.876,0-2.93,1.582-2.93,3.372c0,1.813,1.053,3.395,2.93,3.395
			C18.718,187.272,19.772,185.691,19.772,183.877z"/>
		<path fill="#003D4D" d="M31.175,188.979v-1.35c-0.737,0.823-2.001,1.604-3.604,1.604c-2.192,0-3.268-1.139-3.268-3.227v-7.208
			h2.213v6.407c0,1.58,0.801,2.066,2.045,2.066c1.117,0,2.087-0.633,2.613-1.328v-7.145h2.214v10.18H31.175z"/>
		<path fill="#003D4D" d="M36.254,188.979v-10.18h2.213v1.495c0.759-0.967,1.982-1.726,3.31-1.726v2.191
			c-0.189-0.042-0.421-0.063-0.695-0.063c-0.928,0-2.172,0.632-2.615,1.349v6.935H36.254z"/>
		<path fill="#003D4D" d="M48.984,188.979v-10.18h2.212v1.495c0.761-0.967,1.982-1.726,3.31-1.726v2.191
			c-0.189-0.042-0.421-0.063-0.695-0.063c-0.928,0-2.171,0.632-2.615,1.349v6.935H48.984z"/>
		<path fill="#003D4D" d="M55.666,183.877c0-2.908,2.002-5.332,5.228-5.332c3.267,0,5.248,2.424,5.248,5.332
			c0,2.931-1.981,5.356-5.248,5.356C57.668,189.233,55.666,186.808,55.666,183.877z M63.844,183.877
			c0-1.791-1.054-3.372-2.951-3.372c-1.876,0-2.93,1.582-2.93,3.372c0,1.813,1.053,3.395,2.93,3.395
			C62.79,187.272,63.844,185.691,63.844,183.877z"/>
		<path fill="#003D4D" d="M75.247,188.979v-1.35c-0.738,0.823-2.003,1.604-3.605,1.604c-2.192,0-3.266-1.139-3.266-3.227v-7.208
			h2.213v6.407c0,1.58,0.801,2.066,2.043,2.066c1.117,0,2.087-0.633,2.615-1.328v-7.145h2.213v10.18H75.247z"/>
		<path fill="#003D4D" d="M80.768,186.619v-5.88h-1.685v-1.939h1.685v-2.782h2.213v2.782h2.065v1.939H82.98v5.333
			c0,0.695,0.338,1.202,0.97,1.202c0.421,0,0.822-0.17,0.991-0.359l0.527,1.666c-0.4,0.38-1.053,0.654-2.087,0.654
			C81.674,189.233,80.768,188.305,80.768,186.619z"/>
		<path fill="#003D4D" d="M86.417,183.877c0-2.949,2.15-5.332,5.164-5.332c3.056,0,5.017,2.339,5.017,5.542v0.527h-7.862
			c0.168,1.54,1.327,2.804,3.246,2.804c0.991,0,2.172-0.401,2.887-1.119l1.012,1.457c-1.012,0.969-2.508,1.476-4.131,1.476
			C88.693,189.233,86.417,187.103,86.417,183.877z M91.581,180.358c-1.897,0-2.76,1.455-2.867,2.698h5.733
			C94.405,181.854,93.583,180.358,91.581,180.358z"/>
		<path fill="#003D4D" d="M104.649,186.619v-5.88h-1.687v-1.939h1.687v-2.782h2.213v2.782h2.065v1.939h-2.065v5.333
			c0,0.695,0.336,1.202,0.97,1.202c0.421,0,0.822-0.17,0.989-0.359l0.527,1.666c-0.4,0.38-1.053,0.654-2.086,0.654
			C105.556,189.233,104.649,188.305,104.649,186.619z"/>
		<path fill="#003D4D" d="M110.297,183.877c0-2.908,2.001-5.332,5.228-5.332c3.268,0,5.247,2.424,5.247,5.332
			c0,2.931-1.979,5.356-5.247,5.356C112.298,189.233,110.297,186.808,110.297,183.877z M118.475,183.877
			c0-1.791-1.053-3.372-2.95-3.372c-1.877,0-2.931,1.582-2.931,3.372c0,1.813,1.054,3.395,2.931,3.395
			C117.421,187.272,118.475,185.691,118.475,183.877z"/>
		<path fill="#003D4D" d="M127.538,187.651l1.012-1.601c0.716,0.736,2.128,1.434,3.457,1.434c1.327,0,2.001-0.571,2.001-1.372
			c0-2.001-6.155-0.568-6.155-4.468c0-1.665,1.434-3.098,4.005-3.098c1.729,0,3.035,0.61,3.963,1.434l-0.928,1.56
			c-0.611-0.696-1.748-1.222-3.014-1.222c-1.159,0-1.896,0.526-1.896,1.242c0,1.813,6.154,0.465,6.154,4.511
			c0,1.791-1.496,3.163-4.236,3.163C130.173,189.233,128.591,188.684,127.538,187.651z"/>
		<path fill="#003D4D" d="M145.116,188.979l-3.12-4.195l-1.411,1.454v2.741h-2.213v-14.058h2.213v8.788l4.489-4.911h2.74
			l-4.236,4.615l4.32,5.565H145.116z"/>
		<path fill="#003D4D" d="M149.184,176.185c0-0.759,0.632-1.37,1.371-1.37c0.757,0,1.371,0.611,1.371,1.37
			c0,0.759-0.613,1.371-1.371,1.371C149.815,177.556,149.184,176.944,149.184,176.185z M149.458,188.979v-10.18h2.213v10.18H149.458
			z"/>
		<path fill="#003D4D" d="M154.538,188.979v-14.058h2.212v14.058H154.538z"/>
		<path fill="#003D4D" d="M159.617,188.979v-14.058h2.213v14.058H159.617z"/>
		<path fill="#003D4D" d="M163.811,187.651l1.012-1.601c0.717,0.736,2.128,1.434,3.457,1.434c1.327,0,2.003-0.571,2.003-1.372
			c0-2.001-6.156-0.568-6.156-4.468c0-1.665,1.434-3.098,4.004-3.098c1.729,0,3.036,0.61,3.963,1.434l-0.928,1.56
			c-0.61-0.696-1.75-1.222-3.014-1.222c-1.16,0-1.896,0.526-1.896,1.242c0,1.813,6.154,0.465,6.154,4.511
			c0,1.791-1.496,3.163-4.236,3.163C166.446,189.233,164.866,188.684,163.811,187.651z"/>
		<path fill="#003D4D" d="M175.403,191.784l-0.991-0.824c0.676-0.399,1.371-1.263,1.518-1.98c-0.063,0.021-0.231,0.063-0.358,0.063
			c-0.717,0-1.265-0.548-1.265-1.329c0-0.801,0.654-1.454,1.434-1.454c0.863,0,1.644,0.696,1.644,1.918
			C177.385,189.634,176.563,190.959,175.403,191.784z"/>
		<path fill="#003D4D" d="M185.668,186.619v-5.88h-1.686v-1.939h1.686v-2.782h2.213v2.782h2.066v1.939h-2.066v5.333
			c0,0.695,0.338,1.202,0.97,1.202c0.422,0,0.822-0.17,0.991-0.359l0.527,1.666c-0.401,0.38-1.053,0.654-2.087,0.654
			C186.575,189.233,185.668,188.305,185.668,186.619z"/>
		<path fill="#003D4D" d="M191.949,188.979v-10.18h2.212v1.495c0.759-0.967,1.981-1.726,3.308-1.726v2.191
			c-0.188-0.042-0.421-0.063-0.695-0.063c-0.928,0-2.172,0.632-2.613,1.349v6.935H191.949z"/>
		<path fill="#003D4D" d="M205.48,188.979v-1.097c-0.759,0.865-1.94,1.351-3.289,1.351c-1.665,0-3.541-1.119-3.541-3.373
			c0-2.34,1.876-3.309,3.541-3.309c1.371,0,2.55,0.441,3.289,1.305v-1.517c0-1.181-0.97-1.898-2.382-1.898
			c-1.138,0-2.129,0.422-3.015,1.288l-0.906-1.54c1.182-1.117,2.657-1.645,4.28-1.645c2.255,0,4.237,0.947,4.237,3.688v6.745H205.48
			z M205.48,186.662v-1.54c-0.505-0.695-1.454-1.054-2.424-1.054c-1.244,0-2.17,0.716-2.17,1.833c0,1.097,0.926,1.812,2.17,1.812
			C204.026,187.714,204.975,187.355,205.48,186.662z"/>
		<path fill="#003D4D" d="M210.285,176.185c0-0.759,0.632-1.37,1.371-1.37c0.759,0,1.371,0.611,1.371,1.37
			c0,0.759-0.611,1.371-1.371,1.371C210.917,177.556,210.285,176.944,210.285,176.185z M210.559,188.979v-10.18h2.214v10.18H210.559
			z"/>
		<path fill="#003D4D" d="M222.51,188.979v-6.365c0-1.582-0.801-2.109-2.044-2.109c-1.138,0-2.108,0.674-2.613,1.371v7.104h-2.214
			v-10.18h2.214v1.391c0.674-0.801,1.981-1.645,3.582-1.645c2.192,0,3.289,1.18,3.289,3.267v7.167H222.51z"/>
		<path fill="#003D4D" d="M227.315,176.185c0-0.759,0.633-1.37,1.371-1.37c0.76,0,1.371,0.611,1.371,1.37
			c0,0.759-0.61,1.371-1.371,1.371C227.948,177.556,227.315,176.944,227.315,176.185z M227.589,188.979v-10.18h2.214v10.18H227.589z
			"/>
		<path fill="#003D4D" d="M239.541,188.979v-6.365c0-1.582-0.801-2.109-2.044-2.109c-1.139,0-2.109,0.674-2.614,1.371v7.104h-2.214
			v-10.18h2.214v1.391c0.674-0.801,1.981-1.645,3.583-1.645c2.192,0,3.289,1.18,3.289,3.267v7.167H239.541z"/>
		<path fill="#003D4D" d="M244.493,191.594l1.033-1.604c0.822,0.948,1.876,1.307,3.225,1.307c1.454,0,3.014-0.674,3.014-2.762
			v-1.222c-0.779,1.012-1.939,1.687-3.267,1.687c-2.592,0-4.51-1.875-4.51-5.227c0-3.289,1.896-5.228,4.51-5.228
			c1.286,0,2.445,0.59,3.267,1.665v-1.412h2.214v9.653c0,3.667-2.719,4.658-5.228,4.658
			C247.022,193.111,245.737,192.732,244.493,191.594z M251.765,185.67v-3.794c-0.485-0.759-1.581-1.371-2.613-1.371
			c-1.75,0-2.867,1.308-2.867,3.268c0,1.959,1.117,3.266,2.867,3.266C250.184,187.04,251.28,186.429,251.765,185.67z"/>
		<path fill="#003D4D" d="M268.479,188.979v-1.097c-0.76,0.865-1.94,1.351-3.289,1.351c-1.665,0-3.541-1.119-3.541-3.373
			c0-2.34,1.876-3.309,3.541-3.309c1.371,0,2.551,0.441,3.289,1.305v-1.517c0-1.181-0.97-1.898-2.383-1.898
			c-1.138,0-2.128,0.422-3.014,1.288l-0.906-1.54c1.18-1.117,2.655-1.645,4.279-1.645c2.255,0,4.236,0.947,4.236,3.688v6.745
			H268.479z M268.479,186.662v-1.54c-0.507-0.695-1.455-1.054-2.425-1.054c-1.243,0-2.171,0.716-2.171,1.833
			c0,1.097,0.928,1.812,2.171,1.812C267.024,187.714,267.973,187.355,268.479,186.662z"/>
		<path fill="#003D4D" d="M280.43,188.979v-6.365c0-1.582-0.801-2.109-2.045-2.109c-1.138,0-2.107,0.674-2.613,1.371v7.104h-2.212
			v-10.18h2.212v1.391c0.674-0.801,1.981-1.645,3.583-1.645c2.191,0,3.288,1.18,3.288,3.267v7.167H280.43z"/>
		<path fill="#003D4D" d="M292.676,188.979v-1.392c-0.779,1.012-1.96,1.646-3.267,1.646c-2.613,0-4.532-1.982-4.532-5.333
			c0-3.289,1.896-5.354,4.532-5.354c1.264,0,2.446,0.59,3.267,1.665v-5.289h2.214v14.058H292.676z M292.676,185.924v-4.048
			c-0.505-0.759-1.581-1.371-2.635-1.371c-1.75,0-2.867,1.413-2.867,3.395c0,1.96,1.117,3.372,2.867,3.372
			C291.095,187.272,292.17,186.683,292.676,185.924z"/>
		<path fill="#003D4D" d="M312.045,188.979l-2.36-7.462l-2.361,7.462h-2.319l-3.162-10.18h2.298l2.15,7.398l2.424-7.398h1.939
			l2.424,7.398l2.15-7.398h2.297l-3.161,10.18H312.045z"/>
		<path fill="#003D4D" d="M318.432,183.877c0-2.908,2.001-5.332,5.227-5.332c3.267,0,5.249,2.424,5.249,5.332
			c0,2.931-1.981,5.356-5.249,5.356C320.434,189.233,318.432,186.808,318.432,183.877z M326.61,183.877
			c0-1.791-1.053-3.372-2.951-3.372c-1.876,0-2.929,1.582-2.929,3.372c0,1.813,1.053,3.395,2.929,3.395
			C325.557,187.272,326.61,185.691,326.61,183.877z"/>
		<path fill="#003D4D" d="M331.142,188.979v-10.18h2.212v1.495c0.759-0.967,1.981-1.726,3.31-1.726v2.191
			c-0.189-0.042-0.421-0.063-0.695-0.063c-0.928,0-2.172,0.632-2.615,1.349v6.935H331.142z"/>
		<path fill="#003D4D" d="M345.2,188.979l-3.12-4.195l-1.412,1.454v2.741h-2.213v-14.058h2.213v8.788l4.489-4.911h2.74l-4.236,4.615
			l4.32,5.565H345.2z"/>
	</g>
	<path fill="#EE7203" d="M346.992,160.436H1.217c-0.672,0-1.215-0.544-1.215-1.216s0.543-1.215,1.215-1.215h345.775
		c0.672,0,1.217,0.543,1.217,1.215S347.664,160.436,346.992,160.436z"/>
	<g>
		<path fill="#003D4D" d="M188.701,64.706V50.162h-28.325l27.646-36.881V0h-49.567v14.542h27.548l-27.548,36.881v13.283H188.701z
			 M107.985,50.647H91.193V38.993h16.792c4.076,0,6.405,2.621,6.405,5.827C114.391,48.317,111.967,50.647,107.985,50.647
			 M107.403,24.84h-16.21V14.057h16.21c3.396,0,5.728,2.234,5.728,5.343C113.131,22.604,110.8,24.84,107.403,24.84 M112.354,64.706
			c12.703,0,19.005-8.143,19.005-17.553c0-8.16-5.429-14.75-12.313-15.818c6.107-1.359,11.051-6.787,11.051-14.849
			C130.097,8.339,123.99,0,111.19,0H74.515v64.706H112.354z M43.073,40.847H26.582l8.245-24.364L43.073,40.847z M69.75,64.706
			L45.305,0H24.351L0.001,64.706h18.916l3.202-9.317h25.512l3.202,9.317H69.75z"/>
		<path fill="#003D4D" d="M321.243,142.649c17.367,0,26.965-8.625,26.965-21.63c0-24.061-36.578-18.041-36.578-26.294
			c0-2.72,2.136-4.661,6.99-4.661c6.408,0,13.494,2.232,18.923,6.701l9.113-11.938c-6.882-5.914-15.899-9.018-26.287-9.018
			c-16.591,0-25.803,9.696-25.803,20.567c0,24.932,36.675,17.847,36.675,26.68c0,3.108-3.495,5.343-9.222,5.343
			c-8.835,0-16.013-3.886-20.667-8.547l-8.824,12.521C299.026,138.577,308.141,142.649,321.243,142.649 M292.227,141.485
			l-26.487-34.437l25.128-30.267h-20.57l-19.889,26.578V76.782h-16.678v64.703h16.678v-18.916l4.364-5.434l16.981,24.35H292.227z
			 M199.478,105.209h-13.202V91.323h13.202c4.369,0,8.058,2.525,8.058,6.895C207.535,102.782,203.847,105.209,199.478,105.209
			 M224.794,141.485l-13.186-23.769c6.011-2.133,12.895-8.143,12.895-19.401c0-12.033-8.145-21.533-22.5-21.533H169.6v64.703h16.676
			v-21.734h8.542l10.873,21.734H224.794z M126.612,127.915c-10.774,0-17.664-8.253-17.664-18.734c0-10.578,6.89-18.73,17.664-18.73
			c10.676,0,17.567,8.152,17.567,18.73C144.18,119.662,137.288,127.915,126.612,127.915 M126.612,142.649
			c19.798,0,34.534-13.766,34.534-33.468c0-19.699-14.736-33.467-34.534-33.467s-34.633,13.768-34.633,33.467
			C91.979,128.883,106.814,142.649,126.612,142.649 M73.438,141.485l18.53-64.703H73.147l-9.701,43.167l-11.06-43.167H39.582
			l-11.058,43.167l-9.799-43.167H0l18.531,64.703h17.657l9.797-40.55l9.797,40.55H73.438z"/>
	</g>
</g>
</svg>
