<?xml version="1.0" encoding="utf-8"?>
<!-- Generator: Adobe Illustrator 16.0.0, SVG Export Plug-In . SVG Version: 6.00 Build 0)  -->
<!DOCTYPE svg PUBLIC "-//W3C//DTD SVG 1.0//EN" "http://www.w3.org/TR/2001/REC-SVG-20010904/DTD/svg10.dtd">
<svg version="1.0" id="Layer_1" xmlns="http://www.w3.org/2000/svg" xmlns:xlink="http://www.w3.org/1999/xlink" x="0px" y="0px"
	 width="702.341px" height="293.643px" viewBox="0 0 702.341 293.643" enable-background="new 0 0 702.341 293.643"
	 xml:space="preserve">
<g>
	<defs>
		<rect id="SVGID_1_" x="-986.473" y="4646.997" width="1918.182" height="870.357"/>
	</defs>
	<clipPath id="SVGID_2_">
		<use xlink:href="#SVGID_1_"  overflow="visible"/>
	</clipPath>
	<g clip-path="url(#SVGID_2_)">
		
			<image overflow="visible" width="1920" height="6728" xlink:href="Mai Propser.jpg"  transform="matrix(1 0 0 1 -983.7915 -46.1372)">
		</image>
	</g>
</g>
<g>
	<g>
		<path fill="#AFA3CA" d="M254.15,154.739c12.836-6.254,12.572-15.824-0.588-21.409c-0.242-1.961,1.432-3.639,3.453-3.962
			c10.606,11.114,19.099,11.047,25.016-3.96c2.235-0.356,4.246,1.392,4.537,3.728c-9.702,10.725-9.445,17.868,0.766,28.018
			c-0.201,2.481-2.164,4.202-4.346,3.978c-3.188-6.305-8.35-11.775-15.172-9.722c-3.754,1.128-7.266,4.297-10.018,7.087
			C255.708,158.277,253.991,156.613,254.15,154.739"/>
		<path fill="#AFA3CA" d="M284.657,139.229c2.745-3.379,7.823-2.085,8.84,2.526c0.393,1.763,0.014,3.911-1.318,5.422
			C287.542,152.441,280.125,144.688,284.657,139.229"/>
		<path fill="#9670BA" d="M248.449,182.208c14.022-2.699,16.264-12.02,4.998-20.79c0.221-1.718,2.083-3.157,4.352-2.923
			c4.208,7.439,9.23,13.966,16.967,10.232c3.248-1.594,6.111-4.671,8.223-7.602c2.094,0.221,3.762,2.233,3.424,4.789
			c-12.123,7.846-13.787,14.777-6.554,27.27c-0.699,2.123-3.024,3.553-5.22,2.708c-1.1-5.347-3.717-11.341-8.934-12.928
			c-4.063-1.239-8.871,0.388-14.704,3.828C249.16,186.084,247.812,184.167,248.449,182.208"/>
		<path fill="#AB95CC" d="M279.435,179.814c0.236-3.69,3.397-6.136,6.427-5.537c4.591,0.902,5.435,7.745,1.281,10.539
			C283.5,187.253,279.15,184.146,279.435,179.814"/>
		<path fill="#948EC0" d="M235.798,207.306c14.246,1.002,18.828-7.412,10.232-18.823c0.662-1.58,2.801-2.522,4.97-1.689
			c3.597,14.613,10.792,19.349,23.638,9.1c2.012,0.773,3.021,3.195,2.057,5.508c-13.74,4.414-17.158,10.688-13.386,24.616
			c-1.311,1.947-3.902,2.605-5.735,1.269c0.727-14.95-6.814-18.741-20.496-14.89C235.4,211.173,234.712,208.924,235.798,207.306"/>
		<path fill="#948EC0" d="M268.175,210.25c2.231-1.965,5.609-1.93,7.42,0.373c2.301,2.941,0.734,7.896-3.094,9.203
			C267.085,221.699,263.556,214.334,268.175,210.25"/>
		<path fill="#7C4383" d="M217.104,228.301c13.505,4.646,20.091-2.31,14.737-15.551c1.214-1.552,3.576-1.556,5.241-0.354
			c-0.358,15.845,5.958,21.211,20.491,14.89c1.819,1.323,2.025,3.979,0.563,5.849c-14.412,0.719-19.323,5.907-19.275,20.337
			c-1.93,1.656-4.537,1.391-5.873-0.252c4.59-14.471-1.998-19.91-15.958-19.674C215.587,231.767,215.783,229.432,217.104,228.301"/>
		<path fill="#7C4383" d="M244.645,242.637c2.46-5.661,10.551-4.574,10.446,1.152c-0.063,4.021-4.266,7.073-7.797,5.787
			C244.526,248.558,243.477,245.343,244.645,242.637"/>
		<path fill="#9C61A8" d="M193.652,243.714c11.827,8.009,19.997,2.993,18.229-11.175c1.657-1.203,3.898-0.534,5.148,1.006
			c-4.106,14.863-0.103,22.289,15.958,19.674c1.499,1.846,0.816,4.496-0.961,5.802c-14.121-3.022-20.195,0.711-23.909,14.658
			c-2.329,1.111-4.756,0.146-5.61-1.776c8.18-12.651,3.33-19.662-10.287-23.147C191.304,246.696,192.07,244.47,193.652,243.714"/>
		<path fill="#9C61A8" d="M218.168,263.243c2.726-1.668,6.058-0.941,7.557,1.292c2.654,3.946-1.704,9.32-6.541,8.367
			C214.441,271.957,213.962,265.796,218.168,263.243"/>
		<path fill="#986999" d="M166.978,252.504c9.371,10.788,18.556,8.09,20.541-6.053c1.752-0.738,3.857,0.417,4.701,2.308
			c-7.789,13.135-6.049,21.446,10.287,23.144c0.887,1.995-0.135,4.397-2.439,5.358c-12.813-6.573-19.681-4.604-26.881,7.93
			c-2.313,0.447-4.598-0.923-4.947-3.16c11.123-10.092,8.428-18.17-3.965-25.017C163.953,254.976,165.044,252.879,166.978,252.504"
			/>
		<path fill="#986999" d="M189.808,278.003c3.568,1.621,4.045,6.108,0.809,8.58c-1.986,1.511-4.598,1.705-6.559,0.744
			C177.835,284.193,183.3,275.054,189.808,278.003"/>
		<path fill="#C19CBF" d="M138.904,254.147c6.257,12.837,15.827,12.571,21.408-0.587c1.963-0.244,3.641,1.434,3.963,3.454
			c-11.016,10.512-11.158,19.056,3.961,25.017c0.355,2.235-1.393,4.246-3.727,4.537c-10.728-9.702-17.867-9.444-28.02,0.766
			c-2.485-0.202-4.203-2.172-3.975-4.346c6.304-3.19,11.773-8.35,9.719-15.175c-1.128-3.757-4.303-7.27-7.086-10.017
			C135.367,255.71,137.03,253.99,138.904,254.147"/>
		<path fill="#C19CBF" d="M154.413,284.656c3.374,2.743,2.093,7.821-2.524,8.84c-1.76,0.392-3.91,0.016-5.421-1.315
			C141.2,287.542,148.955,280.125,154.413,284.656"/>
		<path fill="#BE76B2" d="M111.432,248.449c2.703,14.024,12.021,16.265,20.793,4.995c1.739,0.227,3.154,2.111,2.92,4.353
			c-7.413,4.2-13.968,9.218-10.228,16.97c1.589,3.247,4.669,6.11,7.598,8.222c-0.219,2.092-2.229,3.759-4.787,3.425
			c-7.848-12.121-14.779-13.791-27.27-6.554c-2.119-0.703-3.555-3.022-2.709-5.225c5.33-1.095,11.338-3.706,12.931-8.932
			c1.238-4.061-0.39-8.873-3.831-14.702C107.558,249.161,109.475,247.81,111.432,248.449"/>
		<path fill="#BE76B2" d="M113.828,279.435c3.692,0.236,6.137,3.399,5.541,6.424c-0.903,4.594-7.746,5.438-10.543,1.282
			C106.387,283.5,109.5,279.148,113.828,279.435"/>
		<path fill="#C2AED2" d="M86.337,235.798c-1,14.245,7.412,18.825,18.823,10.233c1.582,0.658,2.523,2.799,1.688,4.969
			c-14.707,3.617-19.294,10.862-9.1,23.634c-0.771,2.017-3.197,3.025-5.507,2.06c-4.415-13.742-10.688-17.155-24.617-13.384
			c-1.947-1.313-2.603-3.903-1.269-5.736c14.949,0.729,18.741-6.813,14.887-20.493C82.466,235.401,84.722,234.709,86.337,235.798"/>
		<path fill="#C2AED2" d="M83.392,268.175c1.969,2.237,1.926,5.612-0.374,7.42c-2.956,2.311-7.898,0.711-9.2-3.098
			C71.949,267.096,79.298,263.544,83.392,268.175"/>
		<path fill="#96679B" d="M65.341,217.101c-4.646,13.511,2.307,20.096,15.551,14.739c1.55,1.215,1.559,3.58,0.352,5.24
			c-15.532-0.353-21.317,5.696-14.887,20.493c-1.332,1.833-3.998,2.013-5.849,0.563c-0.719-14.414-5.907-19.321-20.336-19.274
			c-1.658-1.93-1.394-4.54,0.254-5.876c14.468,4.589,19.907-1.992,19.667-15.956C61.872,215.59,64.208,215.78,65.341,217.101"/>
		<path fill="#96679B" d="M51.007,244.644c5.656,2.457,4.574,10.551-1.153,10.444c-4.021-0.063-7.072-4.266-5.788-7.794
			C45.082,244.536,48.287,243.47,51.007,244.644"/>
		<path fill="#652589" d="M49.925,193.654c-8.006,11.823-2.99,19.991,11.178,18.229c1.203,1.656,0.533,3.896-1.008,5.147
			c-14.797-4.094-22.297-0.163-19.67,15.956c-1.857,1.509-4.51,0.802-5.803-0.959c3.021-14.121-0.711-20.197-14.659-23.907
			c-1.111-2.332-0.146-4.76,1.776-5.612c12.675,8.191,19.678,3.269,23.145-10.289C46.943,191.306,49.173,192.063,49.925,193.654"/>
		<path fill="#652589" d="M30.4,218.168c1.662,2.713,0.951,6.047-1.291,7.558c-3.941,2.648-9.324-1.708-8.367-6.544
			C21.683,214.457,27.84,213.95,30.4,218.168"/>
		<path fill="#755880" d="M41.136,166.975c-10.78,9.367-8.094,18.558,6.057,20.543c0.739,1.75-0.418,3.859-2.309,4.7
			c-13.137-7.788-21.45-6.048-23.145,10.289c-1.994,0.886-4.397-0.136-5.359-2.44c6.573-12.81,4.609-19.68-7.931-26.881
			c-0.444-2.308,0.928-4.597,3.165-4.948c10.089,11.125,18.168,8.43,25.014-3.965C38.673,163.951,40.766,165.051,41.136,166.975"/>
		<path fill="#7C4383" d="M15.639,189.81c-1.618,3.56-6.107,4.049-8.581,0.805c-1.509-1.984-1.704-4.598-0.742-6.555
			C9.441,177.855,18.597,183.29,15.639,189.81"/>
		<path fill="#E9A9C9" d="M39.495,138.907c-12.824,6.246-12.584,15.818,0.588,21.404c0.242,1.964-1.433,3.644-3.454,3.962
			c-10.859-11.378-19.225-10.731-25.016,3.965c-2.234,0.354-4.248-1.396-4.537-3.732c9.701-10.724,9.443-17.864-0.767-28.018
			c0.205-2.484,2.17-4.202,4.347-3.974c3.19,6.304,8.35,11.773,15.174,9.72c3.754-1.126,7.262-4.297,10.015-7.087
			C37.906,135.362,39.654,137.012,39.495,138.907"/>
		<path fill="#E9A9C9" d="M8.986,154.416c-2.742,3.373-7.822,2.086-8.84-2.526c-0.391-1.759-0.016-3.911,1.318-5.425
			C6.101,141.199,13.519,148.953,8.986,154.416"/>
		<path fill="#CD5C9C" d="M45.195,111.432c-14.024,2.702-16.263,12.021-4.998,20.793c-0.225,1.732-2.1,3.152-4.353,2.922
			c-4.212-7.441-9.227-13.968-16.966-10.229c-3.247,1.591-6.114,4.671-8.223,7.597c-2.095-0.217-3.763-2.229-3.424-4.785
			c12.123-7.849,13.786-14.78,6.551-27.27c0.703-2.122,3.023-3.556,5.225-2.707c1.1,5.342,3.714,11.336,8.934,12.926
			c4.059,1.238,8.869-0.388,14.703-3.826C44.473,107.555,45.833,109.467,45.195,111.432"/>
		<path fill="#CD5C9C" d="M14.208,113.829c-0.234,3.692-3.397,6.136-6.425,5.539c-4.59-0.901-5.44-7.744-1.281-10.543
			C10.162,106.375,14.494,109.526,14.208,113.829"/>
		<path fill="#8C4995" d="M57.845,86.338c-14.25-1.002-18.822,7.412-10.233,18.82c-0.659,1.583-2.799,2.524-4.968,1.689
			c-3.629-14.741-10.893-19.271-23.639-9.098c-2.012-0.772-3.021-3.198-2.056-5.506c13.741-4.417,17.153-10.693,13.387-24.619
			c1.311-1.949,3.899-2.604,5.736-1.268c-0.728,14.949,6.81,18.738,20.491,14.887C58.242,82.465,58.937,84.718,57.845,86.338"/>
		<path fill="#8C4995" d="M25.467,83.391c-2.228,1.965-5.609,1.934-7.419-0.37c-2.31-2.958-0.712-7.9,3.097-9.206
			C26.544,71.95,30.101,79.295,25.467,83.391"/>
		<path fill="#B494C6" d="M76.542,65.341c-13.506-4.646-20.094,2.304-14.737,15.549c-1.217,1.554-3.58,1.56-5.241,0.354
			c0.352-15.498-5.669-21.334-20.491-14.887c-1.836-1.334-2.015-4-0.565-5.851c14.415-0.719,19.321-5.908,19.276-20.336
			c1.928-1.658,4.54-1.391,5.873,0.252c-4.589,14.47,1.994,19.908,15.957,19.672C78.056,61.874,77.861,64.211,76.542,65.341"/>
		<path fill="#B494C6" d="M48.998,51.007c-2.467,5.68-10.551,4.553-10.445-1.153c0.063-4.02,4.267-7.073,7.795-5.788
			C49.113,45.083,50.169,48.294,48.998,51.007"/>
		<path fill="#9670BA" d="M99.99,49.926c-11.823-8.007-19.994-2.993-18.23,11.178c-1.654,1.203-3.896,0.531-5.146-1.009
			c4.049-14.637,0.315-22.322-15.957-19.668c-1.508-1.859-0.799-4.51,0.96-5.806c14.12,3.021,20.196-0.708,23.912-14.658
			c2.328-1.11,4.757-0.146,5.608,1.776c-8.193,12.674-3.305,19.668,10.289,23.146C102.338,46.943,101.577,49.17,99.99,49.926"/>
		<path fill="#9670BA" d="M75.474,30.398c-2.724,1.668-6.054,0.945-7.557-1.29c-2.652-3.946,1.708-9.321,6.541-8.368
			C79.189,21.68,79.693,27.84,75.474,30.398"/>
		<path fill="#7C4383" d="M126.667,41.136c-9.369-10.779-18.559-8.096-20.541,6.057c-1.752,0.737-3.859-0.417-4.701-2.308
			c7.82-13.197,5.982-21.456-10.289-23.146c-0.889-2.001,0.14-4.401,2.438-5.36c12.811,6.573,19.683,4.61,26.884-7.928
			c2.308-0.449,4.597,0.924,4.948,3.162c-11.127,10.089-8.429,18.17,3.963,25.017C129.689,38.668,128.595,40.766,126.667,41.136"/>
		<path fill="#7C4383" d="M103.834,15.639c-3.568-1.619-4.046-6.112-0.809-8.582c1.987-1.508,4.601-1.701,6.559-0.74
			C115.791,9.442,110.354,18.593,103.834,15.639"/>
		<path fill="#E7B2C8" d="M154.739,39.494c-6.248-12.825-15.818-12.583-21.407,0.587c-1.963,0.244-3.643-1.432-3.964-3.452
			c11.149-10.642,11.006-19.118-3.961-25.015c-0.354-2.236,1.396-4.249,3.73-4.539c10.722,9.698,17.864,9.442,28.017-0.764
			c2.486,0.203,4.204,2.168,3.975,4.342c-6.305,3.194-11.772,8.354-9.718,15.177c1.126,3.745,4.283,7.253,7.085,10.018
			C158.279,37.934,156.611,39.656,154.739,39.494"/>
		<path fill="#E9A9C9" d="M139.228,8.987c-3.376-2.745-2.085-7.821,2.527-8.842c1.759-0.388,3.909-0.016,5.424,1.317
			C152.443,6.1,144.691,13.52,139.228,8.987"/>
		<path fill="#CD5C9C" d="M182.212,45.193c-2.701-14.024-12.021-16.266-20.797-4.998c-1.732-0.225-3.154-2.104-2.92-4.348
			c7.445-4.215,13.966-9.229,10.23-16.971c-1.59-3.245-4.672-6.112-7.598-8.224c0.216-2.091,2.231-3.761,4.786-3.422
			c7.847,12.122,14.778,13.788,27.271,6.553c2.119,0.703,3.554,3.023,2.707,5.223c-5.344,1.099-11.337,3.716-12.928,8.933
			c-1.238,4.061,0.387,8.873,3.828,14.705C186.09,44.472,184.175,45.831,182.212,45.193"/>
		<path fill="#DD7BC3" d="M179.814,14.208c-3.691-0.234-6.134-3.396-5.538-6.426c0.899-4.588,7.745-5.442,10.544-1.281
			C187.271,10.168,184.108,14.495,179.814,14.208"/>
		<path fill="#DD7BC3" d="M207.306,57.846c1-14.249-7.413-18.827-18.822-10.233c-1.584-0.662-2.522-2.8-1.691-4.969
			c14.642-3.604,19.334-10.816,9.1-23.638c0.774-2.017,3.199-3.021,5.51-2.056c4.414,13.737,10.683,17.153,24.615,13.383
			c1.949,1.315,2.605,3.904,1.271,5.736c-14.951-0.728-18.741,6.814-14.888,20.493C211.185,58.233,208.929,58.938,207.306,57.846"/>
		<path fill="#DD7BC3" d="M210.251,25.469c-1.976-2.245-1.922-5.62,0.372-7.422c2.958-2.308,7.899-0.711,9.202,3.098
			C221.697,26.552,214.34,30.093,210.251,25.469"/>
		<path fill="#8C4995" d="M228.302,76.541c4.646-13.507-2.307-20.096-15.551-14.735c-1.547-1.216-1.563-3.576-0.354-5.242
			c15.499,0.351,21.334-5.668,14.89-20.491c1.328-1.836,3.999-2.015,5.848-0.563c0.72,14.414,5.909,19.317,20.335,19.272
			c1.66,1.932,1.393,4.541-0.25,5.874c-14.469-4.588-19.91,1.993-19.672,15.958C231.771,78.054,229.435,77.86,228.302,76.541"/>
		<path fill="#8C4995" d="M242.633,48.998c-5.656-2.462-4.566-10.55,1.156-10.445c4.021,0.063,7.074,4.266,5.786,7.798
			C248.566,49.107,245.357,50.172,242.633,48.998"/>
		<path fill="#B494C6" d="M243.717,99.991c8.006-11.822,2.992-19.995-11.177-18.23c-1.204-1.654-0.533-3.896,1.008-5.147
			c14.766,4.084,22.303,0.193,19.672-15.958c1.85-1.501,4.501-0.808,5.801,0.961c-3.021,14.123,0.712,20.198,14.66,23.91
			c1.107,2.327,0.146,4.757-1.775,5.612c-12.677-8.196-19.67-3.307-23.147,10.286C246.701,102.338,244.474,101.579,243.717,99.991"
			/>
		<path fill="#B494C6" d="M263.244,75.475c-1.666-2.722-0.943-6.054,1.291-7.558c3.953-2.655,9.322,1.713,8.369,6.541
			C271.962,79.189,265.804,79.693,263.244,75.475"/>
		<path fill="#8349B0" d="M252.507,126.667c10.781-9.367,8.096-18.556-6.059-20.542c-0.736-1.751,0.422-3.86,2.31-4.701
			c13.187,7.814,21.458,5.967,23.147-10.286c1.994-0.891,4.395,0.132,5.355,2.438c-6.568,12.812-4.606,19.68,7.932,26.879
			c0.445,2.313-0.927,4.599-3.162,4.953c-10.093-11.132-18.172-8.429-25.016,3.96C254.981,129.691,252.88,128.599,252.507,126.667"
			/>
		<path fill="#8349B0" d="M278.003,103.833c1.615-3.559,6.104-4.053,8.583-0.806c1.507,1.982,1.706,4.594,0.743,6.556
			C284.193,115.81,275.053,110.339,278.003,103.833"/>
	</g>
	<g>
		<path fill="#231F20" d="M108.532,162.151c0,1.898-0.554,3.588-1.661,5.068c-1.109,1.48-2.648,2.737-4.617,3.771
			c-1.969,1.033-4.283,1.81-6.947,2.331c-2.663,0.518-5.534,0.782-8.607,0.782c-2.154,0-4.146-0.114-5.982-0.343
			c-1.834-0.232-3.473-0.513-4.912-0.847c-1.439-0.335-2.646-0.676-3.623-1.032c-0.977-0.354-1.654-0.658-2.035-0.908
			c-0.379-0.252-0.662-0.568-0.843-0.955c-0.183-0.382-0.273-0.901-0.273-1.547c0-0.461,0.032-0.84,0.1-1.143
			c0.065-0.304,0.166-0.548,0.298-0.736c0.133-0.188,0.299-0.315,0.496-0.39c0.198-0.073,0.429-0.11,0.693-0.11
			c0.464,0,1.117,0.177,1.961,0.531c0.845,0.354,1.928,0.74,3.252,1.158c1.322,0.417,2.918,0.807,4.787,1.174
			c1.869,0.366,4.027,0.547,6.477,0.547c1.854,0,3.549-0.157,5.088-0.469c1.538-0.314,2.861-0.756,3.969-1.329
			c1.109-0.573,1.961-1.28,2.556-2.113c0.597-0.835,0.894-1.781,0.894-2.847c0-1.146-0.412-2.127-1.239-2.942
			c-0.829-0.812-1.921-1.528-3.276-2.143c-1.355-0.616-2.902-1.178-4.64-1.691c-1.735-0.508-3.515-1.03-5.337-1.562
			c-1.817-0.531-3.588-1.122-5.308-1.769c-1.722-0.646-3.26-1.41-4.614-2.284c-1.358-0.878-2.457-1.904-3.302-3.084
			c-0.844-1.177-1.267-2.591-1.267-4.239c0-1.688,0.49-3.196,1.465-4.523c0.977-1.321,2.331-2.432,4.07-3.332
			c1.736-0.896,3.803-1.577,6.203-2.048c2.398-0.469,4.986-0.703,7.767-0.703c1.422,0,2.854,0.077,4.293,0.234
			c1.439,0.158,2.794,0.362,4.068,0.625c1.274,0.262,2.406,0.553,3.397,0.876c0.994,0.323,1.647,0.585,1.962,0.783
			c0.315,0.197,0.522,0.354,0.62,0.469c0.101,0.114,0.182,0.261,0.249,0.438c0.065,0.177,0.116,0.392,0.149,0.642
			c0.031,0.248,0.049,0.575,0.049,0.971c0,0.377-0.025,0.709-0.073,1.001c-0.05,0.293-0.125,0.537-0.225,0.736
			c-0.099,0.199-0.239,0.345-0.423,0.438c-0.182,0.096-0.389,0.142-0.619,0.142c-0.363,0-0.936-0.147-1.714-0.439
			c-0.776-0.291-1.727-0.62-2.851-0.984c-1.125-0.366-2.457-0.697-3.996-1.002c-1.539-0.302-3.268-0.455-5.186-0.455
			c-1.785,0-3.343,0.153-4.664,0.455c-1.324,0.305-2.416,0.702-3.275,1.207c-0.862,0.5-1.507,1.095-1.938,1.782
			c-0.43,0.687-0.645,1.415-0.645,2.191c0,1.124,0.412,2.093,1.241,2.906c0.827,0.815,1.925,1.532,3.3,2.16
			c1.373,0.624,2.936,1.201,4.69,1.722c1.753,0.521,3.54,1.049,5.358,1.581c1.82,0.531,3.606,1.118,5.361,1.748
			c1.753,0.641,3.315,1.391,4.689,2.253c1.372,0.87,2.48,1.891,3.324,3.068C108.111,159.154,108.532,160.543,108.532,162.151z"/>
		<path fill="#231F20" d="M171.139,167.783c0,0.335-0.017,0.626-0.05,0.876c-0.035,0.25-0.092,0.471-0.175,0.656
			c-0.081,0.188-0.19,0.358-0.321,0.5c-0.134,0.147-0.365,0.326-0.695,0.533c-0.331,0.209-1.024,0.526-2.082,0.955
			c-1.061,0.428-2.377,0.843-3.947,1.253c-1.57,0.405-3.374,0.75-5.408,1.031c-2.035,0.282-4.262,0.422-6.676,0.422
			c-4.168,0-7.933-0.438-11.29-1.315c-3.358-0.877-6.22-2.17-8.585-3.88c-2.367-1.709-4.187-3.822-5.459-6.335
			c-1.275-2.515-1.912-5.407-1.912-8.682c0-3.359,0.686-6.354,2.061-8.979c1.373-2.631,3.301-4.856,5.782-6.684
			c2.481-1.823,5.45-3.216,8.907-4.177c3.457-0.959,7.287-1.439,11.488-1.439c1.853,0,3.657,0.108,5.412,0.329
			c1.75,0.219,3.373,0.496,4.861,0.831c1.488,0.333,2.812,0.719,3.971,1.156c1.157,0.437,1.96,0.795,2.406,1.079
			c0.445,0.283,0.735,0.496,0.866,0.644c0.134,0.144,0.241,0.317,0.323,0.516c0.082,0.197,0.151,0.432,0.2,0.703
			c0.05,0.271,0.073,0.593,0.073,0.969c0,0.42-0.033,0.772-0.098,1.063c-0.068,0.294-0.168,0.538-0.301,0.736
			c-0.135,0.197-0.291,0.345-0.475,0.439c-0.184,0.093-0.407,0.14-0.674,0.14c-0.464,0-1.111-0.201-1.945-0.61
			c-0.831-0.405-1.902-0.854-3.218-1.347c-1.313-0.488-2.911-0.938-4.789-1.344c-1.879-0.407-4.134-0.61-6.759-0.61
			c-2.863,0-5.467,0.36-7.81,1.079c-2.345,0.719-4.35,1.776-6.012,3.175c-1.664,1.4-2.953,3.107-3.866,5.12
			c-0.917,2.013-1.372,4.309-1.372,6.897c0,2.564,0.439,4.833,1.321,6.804c0.879,1.974,2.146,3.619,3.792,4.944
			c1.647,1.326,3.667,2.326,6.06,3.006c2.395,0.675,5.105,1.016,8.135,1.016c2.56,0,4.797-0.199,6.709-0.595
			s3.544-0.841,4.888-1.329c1.349-0.49,2.453-0.934,3.318-1.331c0.865-0.396,1.547-0.595,2.047-0.595
			c0.233,0,0.433,0.033,0.598,0.097c0.167,0.061,0.3,0.181,0.399,0.358c0.101,0.175,0.175,0.423,0.225,0.734
			C171.111,166.908,171.139,167.302,171.139,167.783z"/>
		<path fill="#231F20" d="M223.72,135.334c0,0.397-0.032,0.742-0.098,1.031c-0.068,0.296-0.184,0.528-0.346,0.707
			c-0.168,0.176-0.357,0.308-0.574,0.39c-0.213,0.083-0.438,0.127-0.668,0.127h-23.523v13.767h22.231
			c0.231,0,0.455,0.035,0.672,0.109c0.212,0.073,0.404,0.193,0.569,0.358c0.168,0.17,0.281,0.391,0.348,0.674
			c0.064,0.279,0.102,0.642,0.102,1.079c0,0.396-0.037,0.736-0.102,1.019c-0.066,0.281-0.18,0.51-0.348,0.687
			c-0.165,0.18-0.357,0.315-0.569,0.408c-0.217,0.095-0.44,0.14-0.672,0.14h-22.231v16.864c0,0.147-0.065,0.289-0.2,0.425
			c-0.13,0.134-0.362,0.238-0.695,0.312c-0.327,0.075-0.759,0.138-1.288,0.187c-0.532,0.054-1.225,0.081-2.085,0.081
			c-0.794,0-1.474-0.027-2.033-0.081c-0.564-0.049-1.009-0.111-1.343-0.187c-0.329-0.073-0.561-0.178-0.693-0.312
			c-0.133-0.136-0.198-0.277-0.198-0.425V135.21c0-0.813,0.341-1.385,1.019-1.708c0.676-0.322,1.396-0.484,2.157-0.484h28.884
			c0.23,0,0.455,0.044,0.668,0.124c0.217,0.085,0.406,0.223,0.574,0.408c0.162,0.188,0.277,0.433,0.346,0.736
			C223.688,134.587,223.72,134.938,223.72,135.334z"/>
	</g>
	<g>
		<g>
			<path fill="#231F20" d="M338.307,78.094l5.55-6.672c3.104,2.643,7.068,4.493,10.637,4.493c4.029,0,6.01-1.587,6.01-4.164
				c0-2.708-2.442-3.564-6.208-5.149l-5.615-2.379c-4.426-1.784-8.653-5.482-8.653-11.761c0-7.134,6.34-12.813,15.324-12.813
				c4.954,0,10.174,1.981,13.871,5.68l-4.953,6.146c-2.842-2.182-5.482-3.438-8.918-3.438c-3.369,0-5.481,1.457-5.481,3.898
				c0,2.643,2.839,3.568,6.538,5.089l5.549,2.244c5.219,2.111,8.521,5.612,8.521,11.693c0,7.133-5.945,13.343-16.252,13.343
				C348.613,84.304,342.669,82.192,338.307,78.094z"/>
			<path fill="#231F20" d="M373.453,67.127c0-10.896,7.992-17.173,17.042-17.173c4.029,0,7.134,1.453,9.576,3.501l-4.556,6.277
				c-1.586-1.323-2.906-1.916-4.426-1.916c-4.69,0-7.664,3.63-7.664,9.311s3.104,9.316,7.332,9.316c2.115,0,4.161-1.06,5.879-2.379
				l3.832,6.341c-3.236,2.84-7.266,3.898-10.832,3.898C380.52,84.304,373.453,78.027,373.453,67.127z"/>
			<path fill="#231F20" d="M402.651,67.127c0-10.896,7.659-17.173,15.985-17.173c8.258,0,15.921,6.277,15.921,17.173
				c0,10.899-7.663,17.177-15.921,17.177C410.31,84.304,402.651,78.027,402.651,67.127z M424.646,67.127
				c0-5.681-2.047-9.311-6.01-9.311c-4.029,0-6.013,3.63-6.013,9.311s1.983,9.316,6.013,9.316
				C422.599,76.444,424.646,72.808,424.646,67.127z"/>
			<path fill="#231F20" d="M440.897,71.624v-13.28h-4.491v-7.204l5.021-0.394l1.123-8.718h8.059v8.718h7.86v7.598h-7.86v13.144
				c0,3.7,1.651,5.221,4.227,5.221c1.059,0,2.246-0.331,3.107-0.662l1.518,7.07c-1.718,0.527-4.098,1.188-7.268,1.188
				C444.068,84.304,440.897,79.216,440.897,71.624z"/>
			<path fill="#231F20" d="M464.548,71.624v-13.28h-4.492v-7.204l5.02-0.394l1.123-8.718h8.061v8.718h7.859v7.598h-7.859v13.144
				c0,3.7,1.65,5.221,4.228,5.221c1.055,0,2.245-0.331,3.104-0.662l1.519,7.07c-1.718,0.527-4.095,1.188-7.266,1.188
				C467.717,84.304,464.548,79.216,464.548,71.624z"/>
			<path fill="#231F20" d="M486.082,40.838c0-2.971,2.377-5.023,5.615-5.023c3.303,0,5.615,2.053,5.615,5.023
				c0,2.972-2.313,5.085-5.615,5.085C488.458,45.923,486.082,43.81,486.082,40.838z M486.876,50.746h9.709v32.766h-9.709V50.746z"/>
			<path fill="#231F20" d="M500.55,79.744l4.358-6.076c2.972,2.248,5.681,3.434,8.456,3.434c2.906,0,4.162-1.056,4.162-2.772
				c0-2.178-3.303-3.17-6.674-4.493c-3.961-1.517-8.65-4.227-8.65-9.646c0-6.075,4.953-10.235,12.548-10.235
				c5.021,0,8.721,2.048,11.56,4.16l-4.357,5.812c-2.377-1.716-4.625-2.772-6.938-2.772c-2.51,0-3.699,0.925-3.699,2.579
				c0,2.111,3.04,2.902,6.409,4.159c4.159,1.521,8.854,3.832,8.854,9.844c0,5.943-4.694,10.568-13.478,10.568
				C508.806,84.304,503.851,82.452,500.55,79.744z"/>
			<path fill="#231F20" d="M531.07,37.206h9.709v11.36l-0.463,5.878c2.444-2.182,5.68-4.489,10.105-4.489
				c7.135,0,10.173,5.021,10.173,13.213v20.344h-9.707V64.419c0-4.755-1.257-6.209-4.031-6.209c-2.443,0-3.964,1.121-6.077,3.169
				v22.132h-9.709V37.206z"/>
		</g>
		<g>
			<path fill="#231F20" d="M334.855,127.537c0-14.268,9.443-22.587,20.346-22.587c5.549,0,10.039,2.639,12.947,5.614l-5.15,6.211
				c-2.184-1.983-4.496-3.44-7.6-3.44c-5.879,0-10.567,5.221-10.567,13.875c0,8.85,4.094,14.003,10.435,14.003
				c3.504,0,6.277-1.786,8.39-4.029l5.154,6.079c-3.569,4.163-8.323,6.343-13.938,6.343
				C343.97,149.605,334.855,142.005,334.855,127.537z"/>
			<path fill="#231F20" d="M370.989,132.427c0-10.897,7.663-17.175,15.985-17.175c8.256,0,15.92,6.277,15.92,17.175
				s-7.664,17.178-15.92,17.178C378.652,149.605,370.989,143.325,370.989,132.427z M392.987,132.427c0-5.683-2.05-9.31-6.013-9.31
				c-4.029,0-6.01,3.627-6.01,9.31c0,5.68,1.98,9.311,6.01,9.311C390.937,141.738,392.987,138.107,392.987,132.427z"/>
			<path fill="#231F20" d="M407.914,116.044h7.929l0.661,4.226h0.264c2.708-2.706,5.615-5.018,9.908-5.018
				c4.625,0,7.398,1.981,9.051,5.482c2.904-2.974,5.943-5.482,10.303-5.482c7.069,0,10.242,5.018,10.242,13.213v20.346h-9.713
				v-19.093c0-4.754-1.254-6.211-4.028-6.211c-1.651,0-3.503,1.06-5.615,3.174v22.13h-9.709v-19.093
				c0-4.754-1.257-6.211-4.032-6.211c-1.585,0-3.5,1.06-5.549,3.174v22.13h-9.711V116.044z"/>
			<path fill="#231F20" d="M462.876,116.044h7.928l0.662,4.226h0.263c2.71-2.706,5.612-5.018,9.909-5.018
				c4.622,0,7.4,1.981,9.051,5.482c2.904-2.974,5.943-5.482,10.302-5.482c7.07,0,10.243,5.018,10.243,13.213v20.346h-9.715v-19.093
				c0-4.754-1.252-6.211-4.026-6.211c-1.651,0-3.503,1.06-5.615,3.174v22.13h-9.712v-19.093c0-4.754-1.254-6.211-4.029-6.211
				c-1.585,0-3.5,1.06-5.549,3.174v22.13h-9.711V116.044z"/>
			<path fill="#231F20" d="M517.507,136.39v-20.346h9.712v19.093c0,4.692,1.255,6.207,4.095,6.207c2.445,0,3.896-1.056,5.814-3.631
				v-21.669h9.71v32.767h-7.928l-0.727-4.561h-0.197c-2.776,3.303-5.815,5.354-10.306,5.354
				C520.546,149.605,517.507,144.585,517.507,136.39z"/>
			<path fill="#231F20" d="M553.708,116.044h7.926l0.659,4.164h0.265c2.775-2.645,6.077-4.956,10.505-4.956
				c7.134,0,10.175,5.018,10.175,13.213v20.346h-9.712v-19.093c0-4.754-1.253-6.211-4.03-6.211c-2.442,0-3.965,1.122-6.078,3.174
				v22.13h-9.709V116.044z"/>
			<path fill="#231F20" d="M589.05,106.139c0-2.978,2.377-5.021,5.615-5.021c3.303,0,5.613,2.044,5.613,5.021
				c0,2.97-2.311,5.084-5.613,5.084C591.427,111.223,589.05,109.109,589.05,106.139z M589.841,116.044h9.713v32.767h-9.713V116.044z
				"/>
			<path fill="#231F20" d="M607.745,136.921v-13.278h-4.491v-7.201l5.02-0.397l1.125-8.718h8.055v8.718h7.865v7.599h-7.865v13.145
				c0,3.7,1.654,5.218,4.227,5.218c1.06,0,2.251-0.328,3.107-0.661l1.521,7.069c-1.718,0.527-4.095,1.191-7.268,1.191
				C610.916,149.605,607.745,144.514,607.745,136.921z"/>
			<path fill="#231F20" d="M629.279,106.139c0-2.978,2.381-5.021,5.615-5.021c3.301,0,5.617,2.044,5.617,5.021
				c0,2.97-2.316,5.084-5.617,5.084C631.66,111.223,629.279,109.109,629.279,106.139z M630.074,116.044h9.707v32.767h-9.707V116.044
				z"/>
			<path fill="#231F20" d="M644.739,132.427c0-10.637,7.595-17.175,15.451-17.175c9.322,0,13.94,6.806,13.94,15.718
				c0,1.724-0.193,3.504-0.391,4.299h-19.626c0.862,4.754,4.166,6.934,8.528,6.934c2.438,0,4.688-0.725,7.066-2.18l3.236,5.882
				c-3.371,2.308-7.729,3.7-11.627,3.7C651.937,149.605,644.739,143.262,644.739,132.427z M665.878,128.86
				c0-3.636-1.587-6.207-5.486-6.207c-3.042,0-5.682,2.046-6.342,6.207H665.878z"/>
			<path fill="#231F20" d="M676.312,145.046l4.359-6.077c2.974,2.243,5.682,3.433,8.455,3.433c2.906,0,4.16-1.058,4.16-2.774
				c0-2.179-3.299-3.171-6.666-4.49c-3.965-1.521-8.658-4.229-8.658-9.646c0-6.076,4.952-10.239,12.552-10.239
				c5.021,0,8.718,2.05,11.556,4.163l-4.354,5.809c-2.379-1.717-4.624-2.771-6.939-2.771c-2.506,0-3.697,0.924-3.697,2.578
				c0,2.114,3.038,2.902,6.41,4.16c4.154,1.519,8.852,3.83,8.852,9.845c0,5.938-4.697,10.568-13.477,10.568
				C684.564,149.605,679.617,147.751,676.312,145.046z"/>
		</g>
		<g>
			<path fill="#231F20" d="M336.583,171.04h27.146v8.191h-17.433v9.973h14.927v8.195h-14.927v16.711h-9.713V171.04z"/>
			<path fill="#231F20" d="M367.96,171.437c0-2.974,2.375-5.02,5.611-5.02c3.311,0,5.617,2.046,5.617,5.02
				c0,2.972-2.307,5.089-5.617,5.089C370.335,176.526,367.96,174.409,367.96,171.437z M368.75,181.346h9.713v32.764h-9.713V181.346z
				"/>
			<path fill="#231F20" d="M385.332,181.346h7.928l0.659,4.163h0.259c2.781-2.646,6.082-4.955,10.512-4.955
				c7.129,0,10.168,5.02,10.168,13.212v20.344h-9.707v-19.09c0-4.753-1.254-6.211-4.03-6.211c-2.442,0-3.965,1.123-6.076,3.173
				v22.128h-9.712V181.346z"/>
			<path fill="#231F20" d="M419.945,204.995c0-6.869,5.487-10.636,18.431-11.955c-0.198-2.907-1.581-4.758-5.151-4.758
				c-2.771,0-5.48,1.126-8.653,2.974l-3.503-6.408c4.164-2.511,8.852-4.293,14.01-4.293c8.383,0,13.008,4.758,13.008,14.797v18.759
				h-7.924l-0.664-3.367h-0.266c-2.767,2.443-5.814,4.162-9.51,4.162C423.71,214.905,419.945,210.543,419.945,204.995z
				 M438.375,204.594v-5.742c-6.867,0.922-9.112,2.905-9.112,5.416c0,2.114,1.451,3.106,3.764,3.106
				C435.207,207.375,436.659,206.318,438.375,204.594z"/>
			<path fill="#231F20" d="M454.628,181.346h7.924l0.662,4.163h0.267c2.776-2.646,6.075-4.955,10.503-4.955
				c7.129,0,10.178,5.02,10.178,13.212v20.344h-9.715v-19.09c0-4.753-1.258-6.211-4.033-6.211c-2.443,0-3.963,1.123-6.075,3.173
				v22.128h-9.71V181.346z"/>
			<path fill="#231F20" d="M488.848,197.73c0-10.901,7.991-17.176,17.04-17.176c4.031,0,7.135,1.454,9.58,3.502l-4.558,6.275
				c-1.582-1.321-2.906-1.916-4.422-1.916c-4.696,0-7.668,3.631-7.668,9.314c0,5.681,3.107,9.313,7.335,9.313
				c2.107,0,4.164-1.058,5.877-2.377l3.83,6.341c-3.236,2.84-7.266,3.898-10.834,3.898
				C495.915,214.905,488.848,208.627,488.848,197.73z"/>
			<path fill="#231F20" d="M518.044,197.73c0-10.64,7.601-17.176,15.46-17.176c9.312,0,13.938,6.802,13.938,15.721
				c0,1.719-0.2,3.499-0.397,4.293h-19.62c0.86,4.757,4.159,6.936,8.522,6.936c2.443,0,4.689-0.726,7.067-2.179l3.236,5.878
				c-3.366,2.313-7.724,3.702-11.629,3.702C525.248,214.905,518.044,208.564,518.044,197.73z M539.183,194.16
				c0-3.631-1.586-6.209-5.48-6.209c-3.041,0-5.684,2.048-6.346,6.209H539.183z"/>
		</g>
	</g>
	<g>
		<path fill="#9C61A8" d="M338.578,244.148h5.114c3.467,0,5.826,1.225,5.826,4.348c0,3.438-2.331,5.57-5.485,6.195l3.27,8.097
			h-2.359l-3.069-7.898h-3.239l-1.563,7.898h-2.217L338.578,244.148z M341.818,253.099c3.55,0,5.51-1.678,5.51-4.318
			c0-2.048-1.447-2.871-4.175-2.871h-2.727l-1.421,7.189H341.818z"/>
		<path fill="#9C61A8" d="M357.813,248.637c3.097,0,4.262,2.158,4.262,5.002c0,1.11-0.313,2.188-0.484,2.697h-8.978
			c-0.514,3.553,1.335,5.058,3.751,5.058c1.078,0,2.216-0.54,3.097-1.191l0.853,1.447c-1.109,0.799-2.671,1.477-4.461,1.477
			c-3.269,0-5.429-2.071-5.429-5.766C350.423,252.163,354.203,248.637,357.813,248.637z M360.084,254.86
			c0.088-0.453,0.142-0.88,0.142-1.42c0-1.562-0.68-3.069-2.669-3.069c-2.018,0-4.007,1.762-4.718,4.489H360.084z"/>
		<path fill="#9C61A8" d="M366.675,248.98h2.188l-2.785,13.808h-2.159L366.675,248.98z M367.13,244.833
			c0-0.937,0.766-1.649,1.647-1.649c0.739,0,1.392,0.484,1.392,1.307c0,0.938-0.767,1.619-1.646,1.619
			C367.785,246.109,367.13,245.656,367.13,244.833z"/>
		<path fill="#9C61A8" d="M373.38,248.98h1.79l-0.198,2.075h0.113c1.563-1.366,3.098-2.418,4.83-2.418
			c2.33,0,3.269,1.308,3.269,3.438c0,0.653-0.058,1.138-0.229,1.904l-1.759,8.808h-2.162l1.705-8.524
			c0.143-0.74,0.227-1.134,0.227-1.616c0-1.395-0.623-2.135-2.043-2.135c-1.082,0-2.416,0.768-4.151,2.505l-1.96,9.771h-2.158
			L373.38,248.98z"/>
		<path fill="#9C61A8" d="M386.365,248.98h2.161l1.021,7.983c0.143,1.335,0.258,2.784,0.398,4.119h0.113
			c0.653-1.362,1.336-2.755,2.047-4.119l4.063-7.983h2.188l-7.357,13.808h-2.615L386.365,248.98z"/>
		<path fill="#9C61A8" d="M405.74,248.637c3.1,0,4.263,2.158,4.263,5.002c0,1.11-0.313,2.188-0.483,2.697h-8.978
			c-0.512,3.553,1.336,5.058,3.751,5.058c1.08,0,2.216-0.54,3.096-1.191l0.854,1.447c-1.108,0.799-2.672,1.477-4.463,1.477
			c-3.266,0-5.425-2.071-5.425-5.766C398.354,252.163,402.132,248.637,405.74,248.637z M408.013,254.86
			c0.086-0.453,0.143-0.88,0.143-1.42c0-1.562-0.682-3.069-2.672-3.069c-2.018,0-4.006,1.762-4.716,4.489H408.013z"/>
		<path fill="#9C61A8" d="M410.853,260.515l1.363-1.079c0.854,1.193,2.104,2.017,3.553,2.017c1.592,0,2.927-1.05,2.927-2.302
			c0-0.994-0.596-1.562-2.528-2.613c-2.133-1.166-3.155-2.215-3.155-3.78c0-2.442,2.161-4.12,4.745-4.12
			c1.678,0,3.041,0.769,4.064,1.848l-1.25,1.221c-0.739-0.765-1.62-1.363-2.869-1.363c-1.479,0-2.615,0.993-2.615,2.158
			c0,1.166,1.193,1.763,2.444,2.446c2.472,1.36,3.237,2.414,3.237,3.919c0,2.587-2.188,4.261-5.171,4.261
			C413.753,263.126,411.792,261.964,410.853,260.515z"/>
		<path fill="#9C61A8" d="M424.348,260.059c0-0.567,0.085-1.021,0.143-1.532l1.62-7.786h-2.018l0.313-1.619l2.158-0.142l1.024-3.809
			h1.847l-0.768,3.809h3.494l-0.338,1.761h-3.555l-1.618,7.898c-0.058,0.341-0.087,0.655-0.087,1.025
			c0,1.135,0.455,1.701,1.763,1.701c0.54,0,1.024-0.226,1.45-0.425l0.482,1.562c-0.626,0.285-1.535,0.624-2.613,0.624
			C425.23,263.126,424.348,261.764,424.348,260.059z"/>
		<path fill="#9C61A8" d="M435.258,248.98h2.188l-2.784,13.808h-2.159L435.258,248.98z M435.712,244.833
			c0-0.937,0.77-1.649,1.648-1.649c0.74,0,1.393,0.484,1.393,1.307c0,0.938-0.768,1.619-1.648,1.619
			C436.367,246.109,435.712,245.656,435.712,244.833z"/>
		<path fill="#9C61A8" d="M441.963,248.98h1.791l-0.2,2.075h0.115c1.563-1.366,3.096-2.418,4.83-2.418
			c2.329,0,3.268,1.308,3.268,3.438c0,0.653-0.057,1.138-0.229,1.904l-1.762,8.808h-2.158l1.703-8.524
			c0.144-0.74,0.229-1.134,0.229-1.616c0-1.395-0.624-2.135-2.047-2.135c-1.078,0-2.414,0.768-4.146,2.505l-1.961,9.771h-2.16
			L441.963,248.98z"/>
		<path fill="#9C61A8" d="M453.214,267.249l1.021-1.507c1.053,0.912,2.359,1.65,3.894,1.65c2.359,0,3.749-1.621,4.347-4.12
			l0.711-2.957c-1.449,1.449-3.039,2.331-4.803,2.331c-2.328,0-4.006-1.648-4.006-4.857c0-5.06,3.582-9.151,7.303-9.151
			c1.449,0,2.671,0.825,3.324,2.075h0.085l0.541-1.732h1.79l-2.898,14.462c-0.738,3.664-3.012,5.71-6.479,5.71
			C456.197,269.152,454.548,268.359,453.214,267.249z M463.358,258.413l1.221-5.912c-0.853-1.445-1.761-2.044-2.812-2.044
			c-2.672,0-5.145,3.409-5.145,7.019c0,2.245,0.938,3.352,2.473,3.352C460.402,260.827,462.05,260.003,463.358,258.413z"/>
		<path fill="#9C61A8" d="M478.527,244.148h2.219l-3.725,18.64h-2.215L478.527,244.148z"/>
		<path fill="#9C61A8" d="M484.581,248.98h1.788l-0.197,2.075h0.111c1.564-1.366,3.099-2.418,4.832-2.418
			c2.329,0,3.269,1.308,3.269,3.438c0,0.653-0.058,1.138-0.229,1.904l-1.761,8.808h-2.162l1.707-8.524
			c0.143-0.74,0.227-1.134,0.227-1.616c0-1.395-0.624-2.135-2.045-2.135c-1.08,0-2.417,0.768-4.15,2.505l-1.959,9.771h-2.158
			L484.581,248.98z"/>
		<path fill="#9C61A8" d="M506.74,255.514l-3.04-11.366h2.272l1.277,5.371c0.344,1.363,0.598,2.613,0.939,4.033h0.112
			c0.853-1.39,1.648-2.697,2.56-4.061l3.523-5.344h2.355l-7.783,11.366l-1.479,7.273h-2.188L506.74,255.514z"/>
		<path fill="#9C61A8" d="M514.381,257.589c0-5.229,3.665-8.952,7.444-8.952c2.984,0,4.943,2.104,4.943,5.541
			c0,5.229-3.695,8.948-7.472,8.948C516.314,263.126,514.381,261.028,514.381,257.589z M524.553,254.323
			c0-2.503-1.051-3.894-2.954-3.894c-2.531,0-5.027,3.15-5.027,7.017c0,2.503,1.05,3.865,2.953,3.865
			C522.082,261.311,524.553,258.186,524.553,254.323z"/>
		<path fill="#9C61A8" d="M539.214,262.788h-1.793l0.229-2.103h-0.111c-1.508,1.337-3.1,2.441-4.775,2.441
			c-2.33,0-3.267-1.333-3.267-3.435c0-0.653,0.058-1.165,0.226-1.903l1.763-8.809h2.187l-1.732,8.522
			c-0.143,0.74-0.228,1.137-0.228,1.623c0,1.39,0.625,2.131,2.048,2.131c1.077,0,2.413-0.769,4.091-2.501l1.96-9.775h2.158
			L539.214,262.788z"/>
		<path fill="#9C61A8" d="M546.515,248.98h1.789l-0.311,2.643h0.111c1.108-1.678,2.586-2.985,4.291-2.985
			c0.511,0,0.908,0.087,1.309,0.256l-0.771,1.934c-0.282-0.142-0.681-0.228-1.192-0.228c-1.363,0-2.899,1.221-4.061,3.467
			l-1.736,8.722h-2.158L546.515,248.98z"/>
		<path fill="#9C61A8" d="M559.697,255.598c0-5.851,3.864-11.789,9.633-11.789c2.131,0,3.666,1.161,4.574,2.757l-1.535,1.162
			c-0.737-1.193-1.733-2.017-3.153-2.017c-4.431,0-7.245,5.171-7.245,9.69c0,3.381,1.391,5.822,4.745,5.822
			c1.507,0,2.726-0.653,3.95-1.676l0.994,1.42c-1.364,1.195-3.096,2.158-5.344,2.158
			C562.056,263.126,559.697,260.059,559.697,255.598z"/>
		<path fill="#9C61A8" d="M574.811,257.589c0-5.229,3.665-8.952,7.444-8.952c2.982,0,4.944,2.104,4.944,5.541
			c0,5.229-3.692,8.948-7.473,8.948C576.744,263.126,574.811,261.028,574.811,257.589z M584.984,254.323
			c0-2.503-1.051-3.894-2.956-3.894c-2.529,0-5.029,3.15-5.029,7.017c0,2.503,1.05,3.865,2.954,3.865
			C582.509,261.311,584.984,258.186,584.984,254.323z"/>
		<path fill="#9C61A8" d="M591.941,248.98h1.792l-0.197,2.075h0.111c1.45-1.366,3.099-2.418,4.55-2.418
			c2.186,0,2.98,1.195,3.178,2.698c1.764-1.676,3.469-2.698,4.889-2.698c2.303,0,3.268,1.308,3.268,3.438
			c0,0.653-0.086,1.138-0.228,1.904l-1.76,8.808h-2.188l1.73-8.524c0.143-0.74,0.229-1.134,0.229-1.616
			c0-1.395-0.651-2.135-2.016-2.135c-0.794,0-2.244,0.768-3.893,2.505l-1.963,9.771h-2.158l1.705-8.524
			c0.143-0.74,0.229-1.134,0.229-1.616c0-1.395-0.627-2.135-1.988-2.135c-0.826,0-2.275,0.768-3.895,2.505l-1.961,9.771h-2.157
			L591.941,248.98z"/>
		<path fill="#9C61A8" d="M614.644,248.98h1.789l-0.2,2.075h0.114c1.449-1.366,3.1-2.418,4.545-2.418
			c2.19,0,2.984,1.195,3.186,2.698c1.762-1.676,3.465-2.698,4.886-2.698c2.302,0,3.267,1.308,3.267,3.438
			c0,0.653-0.086,1.138-0.227,1.904l-1.761,8.808h-2.187l1.731-8.524c0.143-0.74,0.227-1.134,0.227-1.616
			c0-1.395-0.655-2.135-2.017-2.135c-0.797,0-2.244,0.768-3.893,2.505l-1.962,9.771h-2.158l1.704-8.524
			c0.143-0.74,0.229-1.134,0.229-1.616c0-1.395-0.627-2.135-1.99-2.135c-0.823,0-2.273,0.768-3.89,2.505l-1.964,9.771h-2.158
			L614.644,248.98z"/>
		<path fill="#9C61A8" d="M645.044,262.788h-1.793l0.23-2.103h-0.115c-1.505,1.337-3.098,2.441-4.771,2.441
			c-2.334,0-3.27-1.333-3.27-3.435c0-0.653,0.055-1.165,0.228-1.903l1.76-8.809h2.189l-1.733,8.522
			c-0.141,0.74-0.226,1.137-0.226,1.623c0,1.39,0.623,2.131,2.045,2.131c1.08,0,2.415-0.769,4.089-2.501l1.963-9.775h2.16
			L645.044,262.788z"/>
		<path fill="#9C61A8" d="M652.345,248.98h1.791l-0.199,2.075h0.113c1.563-1.366,3.098-2.418,4.831-2.418
			c2.329,0,3.267,1.308,3.267,3.438c0,0.653-0.058,1.138-0.227,1.904l-1.762,8.808H658l1.705-8.524
			c0.142-0.74,0.227-1.134,0.227-1.616c0-1.395-0.623-2.135-2.045-2.135c-1.078,0-2.416,0.768-4.148,2.505l-1.961,9.771h-2.16
			L652.345,248.98z"/>
		<path fill="#9C61A8" d="M667.288,248.98h2.188l-2.785,13.808h-2.159L667.288,248.98z M667.743,244.833
			c0-0.937,0.769-1.649,1.65-1.649c0.736,0,1.39,0.484,1.39,1.307c0,0.938-0.767,1.619-1.648,1.619
			C668.396,246.109,667.743,245.656,667.743,244.833z"/>
		<path fill="#9C61A8" d="M672.345,260.059c0-0.567,0.084-1.021,0.143-1.532l1.619-7.786h-2.016l0.311-1.619l2.159-0.142
			l1.024-3.809h1.847l-0.771,3.809h3.498l-0.342,1.761h-3.551l-1.621,7.898c-0.058,0.341-0.085,0.655-0.085,1.025
			c0,1.135,0.455,1.701,1.763,1.701c0.539,0,1.022-0.226,1.448-0.425l0.484,1.562c-0.628,0.285-1.534,0.624-2.614,0.624
			C673.225,263.126,672.345,261.764,672.345,260.059z"/>
		<path fill="#9C61A8" d="M677.855,268.33l0.713-1.619c0.34,0.169,0.651,0.256,1.021,0.256c1.394,0,2.671-1.252,3.61-3.154
			l0.512-0.996l-2.359-13.836h2.16l1.079,7.757c0.198,1.25,0.341,2.812,0.454,4.117h0.111c0.655-1.306,1.368-2.812,2.049-4.117
			l3.979-7.757h2.159l-8.13,14.974c-1.446,2.7-3.123,4.771-5.768,4.771C679.048,268.725,678.396,268.613,677.855,268.33z"/>
	</g>
</g>
</svg>
