<?xml version="1.0" encoding="utf-8"?>
<!-- Generator: Adobe Illustrator 16.0.0, SVG Export Plug-In . SVG Version: 6.00 Build 0)  -->
<!DOCTYPE svg PUBLIC "-//W3C//DTD SVG 1.1//EN" "http://www.w3.org/Graphics/SVG/1.1/DTD/svg11.dtd">
<svg version="1.1" id="Layer_1" xmlns="http://www.w3.org/2000/svg" xmlns:xlink="http://www.w3.org/1999/xlink" x="0px" y="0px"
	 width="320px" height="80px" viewBox="0 0 320 80" enable-background="new 0 0 320 80" xml:space="preserve">
<g>
	<g>
		<g>
			<path fill="#F7EC35" d="M91.017,2.709c0,0.107-0.014,0.214-0.031,0.315C91.017,2.865,91.025,2.756,91.017,2.709z"/>
			<path fill="#F7EC35" d="M89.307,4.417c-19.62,0-35.579,15.962-35.579,35.583c0,19.621,15.959,35.584,35.579,35.584
				c0.576,0,1.147-0.016,1.714-0.043c-0.004-0.024-0.536-2.393-4.771-4.416C70.437,69.584,58.033,56.214,58.033,40
				c0-16.228,12.425-29.603,28.257-31.126c3.419-2.417,4.464-4.843,4.683-5.785C90.798,3.847,90.12,4.417,89.307,4.417z"/>
			<path fill="#30D2A9" d="M90.985,3.024c-0.004,0.022-0.009,0.042-0.013,0.064C90.977,3.068,90.981,3.046,90.985,3.024z"/>
		</g>
		<path fill="#05CE7C" d="M89.312,79c-21.506,0-39-17.494-39-39c0-21.505,17.495-39,39-39c0.946,0,1.709,0.763,1.709,1.709
			c0,0.942-0.764,1.708-1.709,1.708C69.691,4.417,53.73,20.378,53.73,40c0,19.621,15.961,35.584,35.582,35.584
			c19.622,0,35.583-15.963,35.583-35.584c0-0.944,0.768-1.709,1.709-1.709c0.946,0,1.71,0.766,1.71,1.709
			C128.314,61.506,110.817,79,89.312,79z"/>
		<g>
			<path fill="#4CB978" d="M94.525,11.868c-0.058,0-0.112-0.006-0.169-0.016l-0.237-0.04c-0.531-0.091-0.888-0.598-0.799-1.127
				c0.093-0.533,0.598-0.893,1.129-0.797l0.241,0.04c0.531,0.092,0.888,0.598,0.794,1.129
				C95.404,11.534,94.989,11.868,94.525,11.868z"/>
			<path fill="#4CB978" d="M103.514,15.038c-0.161,0-0.321-0.038-0.468-0.121c-1.085-0.591-2.209-1.118-3.352-1.564
				c-0.504-0.194-0.754-0.761-0.558-1.263c0.196-0.504,0.763-0.752,1.263-0.556c1.223,0.475,2.433,1.038,3.584,1.671
				c0.473,0.259,0.647,0.853,0.389,1.326C104.193,14.854,103.858,15.038,103.514,15.038z"/>
			<path fill="#4CB978" d="M114.794,55.984c-0.17,0-0.339-0.045-0.496-0.137c-0.464-0.274-0.62-0.873-0.344-1.339
				c0.625-1.06,1.188-2.169,1.669-3.301c0.21-0.493,0.786-0.726,1.281-0.516c0.495,0.214,0.728,0.786,0.513,1.283
				c-0.513,1.208-1.116,2.393-1.786,3.528C115.455,55.811,115.129,55.984,114.794,55.984z M118.244,47.1
				c-0.067,0-0.134-0.007-0.201-0.02c-0.526-0.114-0.866-0.633-0.754-1.156c0.031-0.154,0.063-0.305,0.094-0.455
				c0.098-0.531,0.611-0.881,1.143-0.773c0.531,0.104,0.875,0.616,0.772,1.145c-0.032,0.162-0.063,0.322-0.098,0.485
				C119.101,46.785,118.695,47.1,118.244,47.1z M118.878,40.132c-0.536,0-0.973-0.043-0.977-0.581c0-1.234-0.081-2.278-0.241-3.495
				c-0.071-0.535,0.308-0.928,0.839-0.998c0.536-0.067,1.027,0.355,1.098,0.891c0.17,1.299,0.259,2.259,0.259,3.575
				C119.855,40.063,119.418,40.132,118.878,40.132L118.878,40.132z M117.333,31.519c-0.411,0-0.79-0.256-0.924-0.667
				c-0.049-0.143-0.103-0.288-0.152-0.431c-0.178-0.511,0.085-1.069,0.594-1.25c0.504-0.181,1.063,0.085,1.245,0.591
				c0.059,0.156,0.112,0.313,0.166,0.471c0.169,0.509-0.107,1.064-0.621,1.236C117.539,31.503,117.437,31.519,117.333,31.519z
				 M114.741,25.879c-0.331,0-0.657-0.169-0.839-0.478c-0.629-1.056-1.334-2.082-2.093-3.051c-0.335-0.424-0.259-1.038,0.165-1.37
				c0.424-0.333,1.035-0.259,1.37,0.165c0.813,1.033,1.567,2.129,2.236,3.258c0.276,0.462,0.125,1.063-0.339,1.337
				C115.084,25.835,114.91,25.879,114.741,25.879z M108.612,18.579c-0.223,0-0.451-0.078-0.634-0.236
				c-0.116-0.101-0.236-0.201-0.353-0.299c-0.415-0.346-0.473-0.962-0.125-1.375c0.344-0.415,0.959-0.471,1.375-0.127
				c0.125,0.105,0.25,0.214,0.375,0.322c0.411,0.353,0.455,0.968,0.103,1.377C109.161,18.463,108.889,18.579,108.612,18.579z"/>
			<path fill="#4CB978" d="M111.236,60.798c-0.228,0-0.46-0.08-0.643-0.245c-0.402-0.361-0.446-0.967-0.085-1.366l0.156-0.177
				c0.362-0.403,0.978-0.439,1.379-0.082c0.406,0.357,0.442,0.978,0.085,1.379l-0.147,0.161
				C111.79,60.684,111.513,60.798,111.236,60.798z"/>
		</g>
		<path fill="#006072" d="M89.312,71.275c-17.243,0-31.274-14.027-31.274-31.275c0-17.248,14.032-31.274,31.274-31.274
			c0.946,0,1.709,0.766,1.709,1.707c0,0.944-0.764,1.71-1.709,1.71c-15.359,0-27.857,12.496-27.857,27.857
			s12.498,27.859,27.857,27.859c0.946,0,1.709,0.764,1.709,1.709S90.257,71.275,89.312,71.275z"/>
		<g>
			<path fill="#30D2A9" d="M101.582,59.066c-0.236,0-0.464-0.111-0.607-0.314c-0.228-0.333-0.147-0.791,0.188-1.018
				c0.129-0.092,0.259-0.184,0.384-0.275c0.33-0.238,0.785-0.165,1.026,0.163c0.236,0.328,0.161,0.786-0.165,1.022
				c-0.139,0.098-0.277,0.196-0.416,0.293C101.868,59.023,101.725,59.066,101.582,59.066z"/>
			<path fill="#30D2A9" d="M104.805,56.354c-0.188,0-0.375-0.069-0.518-0.21c-0.286-0.285-0.29-0.752-0.004-1.037
				c4.035-4.092,6.258-9.432,6.258-15.036c0-6.559-3.013-12.681-8.267-16.798c-0.317-0.248-0.375-0.71-0.125-1.027
				c0.25-0.319,0.709-0.375,1.031-0.125c5.611,4.395,8.824,10.936,8.824,17.95c0,5.99-2.37,11.699-6.682,16.067
				C105.18,56.281,104.992,56.354,104.805,56.354z"/>
			<path fill="#30D2A9" d="M66.958,36.516c-0.047,0-0.095-0.004-0.143-0.016c-0.397-0.078-0.654-0.462-0.576-0.859
				C68.351,24.944,77.887,17.18,88.91,17.18c2.303,0,4.588,0.344,6.78,1.02c0.388,0.119,0.607,0.529,0.486,0.917
				c-0.12,0.386-0.527,0.601-0.915,0.484c-2.053-0.634-4.191-0.958-6.352-0.958c-10.326,0-19.256,7.269-21.233,17.281
				C67.607,36.273,67.302,36.516,66.958,36.516z M99.595,21.369c-0.116,0-0.236-0.027-0.348-0.087
				c-0.214-0.116-0.424-0.228-0.643-0.334c-0.361-0.183-0.504-0.623-0.326-0.984c0.183-0.361,0.625-0.506,0.986-0.323
				c0.228,0.114,0.455,0.232,0.683,0.354c0.353,0.194,0.486,0.636,0.29,0.993C100.109,21.233,99.854,21.369,99.595,21.369z"/>
			<path fill="#30D2A9" d="M66.547,40.732c-0.404,0-0.732-0.329-0.732-0.732c0-0.169,0-0.339,0.004-0.507
				c0.009-0.404,0.339-0.727,0.75-0.714c0.402,0.006,0.724,0.344,0.714,0.748c-0.002,0.158-0.004,0.314-0.004,0.473
				C67.279,40.404,66.951,40.732,66.547,40.732z"/>
		</g>
		<path fill="#30D2A9" d="M92.735,55.667c-0.428,0-0.826-0.288-0.942-0.721c-0.143-0.522,0.165-1.058,0.688-1.198
			c6.191-1.676,10.69-7.435,10.69-13.692c0-7.67-6.539-14.152-14.409-14.152c-7.874,0-14.41,6.455-14.41,14.096v13.535
			c0,0.539-0.384,0.976-0.922,0.976c-0.54,0-0.921-0.437-0.921-0.976V40c0-8.7,7.378-16.049,16.308-16.049
			c8.927,0,16.39,7.376,16.39,16.104c0,7.122-5.142,13.675-12.172,15.575C92.945,55.656,92.82,55.667,92.735,55.667z"/>
		<path fill="#05CE7C" d="M89.312,49.039c-0.54,0-0.978-0.438-0.978-0.979c0-0.537,0.438-0.975,0.978-0.975
			c3.91,0,7.083-3.18,7.083-7.086c0-0.54,0.438-0.978,0.978-0.978c0.541,0,0.978,0.438,0.978,0.978
			C98.35,44.983,94.297,49.039,89.312,49.039z"/>
		<path fill="#30D2A9" d="M80.616,61.347c-0.54,0-1.107-0.435-1.107-0.976V40c0-4.977,4.138-9.023,9.231-9.023
			c2.455,0,4.914,0.995,6.579,2.663c0.379,0.381,0.379,1,0,1.379c-0.384,0.382-1.004,0.382-1.384,0
			c-1.29-1.288-3.147-2.089-5.071-2.089c-3.941,0-7.141,3.238-7.141,7.07v20.371C81.724,60.912,81.156,61.347,80.616,61.347z"/>
	</g>
	<g>
		<path fill="#59595C" d="M149.039,24.022c0.701,0.681,1.526,1.219,2.446,1.601c0.929,0.381,1.933,0.576,2.991,0.576
			c0.661,0,1.276-0.069,1.839-0.208c0.563-0.139,1.076-0.315,1.531-0.527c0.456-0.212,0.857-0.444,1.192-0.694
			c0.326-0.241,0.593-0.462,0.79-0.659c0.281-0.286,0.433-0.614,0.446-0.975c0.014-0.371-0.107-0.685-0.357-0.935
			c-0.495-0.496-1.326-0.494-1.816-0.007c-0.478,0.46-1.031,0.823-1.643,1.083c-1.218,0.513-2.74,0.515-3.977-0.016
			c-0.621-0.268-1.174-0.641-1.638-1.107c-0.469-0.469-0.839-1.02-1.107-1.641c-0.268-0.618-0.402-1.29-0.402-1.995
			c0-0.708,0.134-1.386,0.402-2.013c0.268-0.629,0.638-1.187,1.107-1.653c0.464-0.469,1.018-0.839,1.638-1.109
			c1.236-0.531,2.759-0.529,3.977-0.014c0.616,0.259,1.174,0.607,1.639,1.016c0.5,0.496,1.326,0.496,1.821,0
			c0.317-0.317,0.411-0.694,0.281-1.091c-0.112-0.337-0.25-0.571-0.415-0.71c-0.209-0.189-0.486-0.41-0.821-0.661
			c-0.339-0.256-0.732-0.5-1.165-0.721c-0.433-0.221-0.929-0.415-1.464-0.574c-0.549-0.161-1.152-0.243-1.804-0.243c0,0,0,0-0.004,0
			c-1.098,0.042-2.133,0.274-3.075,0.688s-1.768,0.971-2.459,1.661c-0.688,0.689-1.237,1.508-1.629,2.433
			c-0.397,0.926-0.594,1.933-0.594,2.993c0,1.1,0.205,2.134,0.607,3.071C147.775,22.523,148.337,23.342,149.039,24.022z"/>
		<path fill="#59595C" d="M164.866,24.022c0.701,0.681,1.522,1.219,2.446,1.601c0.924,0.381,1.928,0.576,2.99,0.576
			c1.139,0,2.16-0.167,3.039-0.496c0.895-0.335,1.705-0.906,2.402-1.683c0.246-0.248,0.369-0.554,0.369-0.911
			c0-0.357-0.123-0.663-0.369-0.911c-0.5-0.496-1.33-0.489-1.816-0.004c-0.479,0.46-1.031,0.823-1.643,1.083
			c-1.152,0.484-2.58,0.52-3.79,0.056c-0.575-0.219-1.093-0.524-1.54-0.906c-0.451-0.381-0.834-0.841-1.139-1.368
			c-0.24-0.411-0.414-0.853-0.526-1.319h11.472c0.326,0,0.629-0.118,0.906-0.355c0.205-0.178,0.441-0.511,0.375-1.064
			c-0.041-1.038-0.271-2.026-0.688-2.939c-0.41-0.911-0.977-1.719-1.678-2.397c-0.697-0.679-1.51-1.226-2.406-1.627
			c-0.911-0.406-1.885-0.612-2.92-0.612l0,0c-1.102,0.042-2.133,0.274-3.074,0.688c-0.942,0.413-1.773,0.971-2.46,1.661
			c-0.692,0.689-1.241,1.508-1.634,2.433c-0.393,0.924-0.594,1.93-0.594,2.993c0,1.103,0.205,2.136,0.611,3.071
			C163.604,22.523,164.162,23.342,164.866,24.022z M172.093,13.671c0.567,0.221,1.085,0.522,1.53,0.895
			c0.451,0.373,0.832,0.821,1.135,1.337c0.236,0.397,0.42,0.824,0.539,1.27h-9.963c0.121-0.446,0.3-0.875,0.527-1.274
			c0.295-0.513,0.67-0.962,1.121-1.333c0.445-0.373,0.964-0.674,1.525-0.895C169.634,13.234,170.973,13.234,172.093,13.671z"/>
		<path fill="#59595C" d="M181.506,26.23c0.354,0,0.662-0.125,0.91-0.375c0.246-0.248,0.371-0.554,0.371-0.909v-6.55
			c0-0.688,0.135-1.351,0.389-1.969c0.26-0.621,0.621-1.165,1.076-1.623c0.459-0.457,1.004-0.832,1.615-1.109
			s1.268-0.426,1.941-0.444c0.416,0,0.754-0.125,1.014-0.368c0.26-0.248,0.393-0.556,0.393-0.915s-0.133-0.667-0.393-0.917
			c-0.26-0.243-0.598-0.366-1.018-0.366l0,0c-1.041,0.02-2.031,0.237-2.945,0.641c-0.91,0.404-1.725,0.962-2.416,1.663
			c-0.688,0.698-1.236,1.522-1.629,2.446c-0.393,0.924-0.594,1.919-0.594,2.962v6.55c0,0.355,0.129,0.663,0.375,0.909
			C180.846,26.105,181.148,26.23,181.506,26.23z"/>
		<path fill="#59595C" d="M193.09,24.022c0.695,0.679,1.521,1.217,2.445,1.601c0.924,0.381,1.928,0.576,2.99,0.576
			c1.135,0,2.16-0.167,3.041-0.496c0.893-0.335,1.703-0.906,2.396-1.683c0.25-0.248,0.375-0.554,0.375-0.911
			c0-0.357-0.125-0.663-0.375-0.908c-0.492-0.496-1.326-0.494-1.813-0.007c-0.477,0.46-1.031,0.823-1.643,1.083
			c-1.156,0.484-2.584,0.52-3.795,0.056c-0.57-0.219-1.088-0.524-1.539-0.906c-0.445-0.381-0.83-0.841-1.133-1.368
			c-0.242-0.411-0.42-0.853-0.527-1.319h11.471c0.326,0,0.629-0.118,0.906-0.355c0.205-0.178,0.441-0.513,0.375-1.064
			c-0.045-1.038-0.271-2.026-0.688-2.939c-0.414-0.913-0.977-1.719-1.678-2.397c-0.701-0.679-1.51-1.226-2.41-1.627
			c-0.906-0.406-1.885-0.612-2.914-0.612h-0.006c-1.098,0.042-2.133,0.274-3.07,0.688c-0.947,0.413-1.771,0.971-2.459,1.661
			c-0.693,0.692-1.242,1.511-1.635,2.433c-0.393,0.921-0.594,1.93-0.594,2.993c0,1.103,0.205,2.136,0.611,3.071
			C191.826,22.525,192.389,23.342,193.09,24.022z M193.559,17.173c0.121-0.449,0.293-0.875,0.527-1.274
			c0.293-0.513,0.668-0.962,1.115-1.333c0.449-0.373,0.963-0.674,1.531-0.895c1.119-0.437,2.459-0.437,3.584,0
			c0.566,0.221,1.08,0.522,1.531,0.895c0.445,0.373,0.83,0.821,1.133,1.337c0.236,0.399,0.42,0.826,0.541,1.27H193.559z"/>
		<path fill="#59595C" d="M210.873,24.022c0.699,0.681,1.521,1.219,2.445,1.601c0.924,0.381,1.934,0.576,2.99,0.576
			c1.08,0,2.102-0.206,3.041-0.609c0.932-0.402,1.752-0.962,2.445-1.663c0.688-0.701,1.24-1.522,1.646-2.444
			c0.402-0.926,0.607-1.924,0.607-2.964c0-1.064-0.209-2.078-0.625-3.013c-0.41-0.931-0.977-1.759-1.678-2.458
			c-0.697-0.701-1.518-1.263-2.438-1.676c-0.928-0.415-1.914-0.627-2.951-0.627l0,0c-1.191,0.045-2.295,0.353-3.275,0.917
			c-0.709,0.408-1.352,0.877-1.92,1.397V7.07c0-0.355-0.125-0.661-0.369-0.909c-0.492-0.491-1.326-0.493-1.822,0
			c-0.25,0.248-0.375,0.554-0.375,0.909v11.449c0,1.103,0.205,2.136,0.611,3.071C209.609,22.525,210.172,23.342,210.873,24.022z
			 M216.309,13.344c0.705,0,1.383,0.134,2.014,0.401c0.629,0.268,1.188,0.638,1.652,1.107c0.467,0.466,0.838,1.024,1.105,1.653
			s0.402,1.308,0.402,2.013c0,0.703-0.135,1.375-0.402,1.995c-0.268,0.621-0.639,1.174-1.105,1.641
			c-0.465,0.466-1.023,0.839-1.652,1.107c-1.258,0.533-2.777,0.533-4.008,0c-0.625-0.268-1.174-0.641-1.645-1.107
			c-0.463-0.469-0.838-1.02-1.105-1.641c-0.268-0.618-0.402-1.29-0.402-1.986c0.018-0.748,0.174-1.446,0.461-2.076
			c0.289-0.633,0.668-1.187,1.129-1.647c0.455-0.457,0.996-0.819,1.605-1.076C214.965,13.473,215.621,13.344,216.309,13.344z"/>
		<path fill="#59595C" d="M233.445,10.686L233.445,10.686c-1.041,0.02-2.031,0.237-2.947,0.641c-0.91,0.402-1.723,0.962-2.414,1.663
			c-0.688,0.698-1.236,1.522-1.629,2.446c-0.393,0.926-0.594,1.922-0.594,2.962v6.55c0,0.355,0.125,0.661,0.375,0.909
			c0.246,0.25,0.553,0.375,0.906,0.375c0.355,0,0.664-0.125,0.91-0.375c0.25-0.248,0.375-0.554,0.375-0.909v-6.55
			c0-0.69,0.129-1.351,0.389-1.969c0.254-0.621,0.615-1.165,1.076-1.623c0.459-0.457,0.998-0.832,1.615-1.109
			c0.605-0.277,1.268-0.426,1.941-0.444c0.41,0,0.754-0.125,1.008-0.368c0.264-0.248,0.398-0.556,0.398-0.915
			s-0.135-0.667-0.398-0.917C234.203,10.808,233.865,10.686,233.445,10.686z"/>
		<path fill="#59595C" d="M238.725,24.022c0.701,0.679,1.527,1.217,2.445,1.601c0.926,0.381,1.934,0.576,2.992,0.576
			c1.156,0,2.248-0.288,3.24-0.855c0.719-0.408,1.369-0.881,1.938-1.415v1.049c0,0.354,0.125,0.66,0.369,0.908
			c0.25,0.248,0.559,0.375,0.912,0.375c0.355,0,0.66-0.127,0.91-0.375c0.244-0.248,0.375-0.554,0.375-0.908v-6.459
			c0-1.064-0.209-2.078-0.625-3.013c-0.416-0.931-0.977-1.759-1.678-2.458c-0.697-0.701-1.518-1.263-2.443-1.676
			c-0.922-0.415-1.914-0.627-2.949-0.627l0,0c-1.098,0.042-2.133,0.274-3.076,0.688c-0.941,0.413-1.768,0.971-2.459,1.661
			c-0.691,0.692-1.24,1.511-1.629,2.433c-0.393,0.921-0.594,1.93-0.594,2.993c0,1.103,0.205,2.136,0.607,3.071
			C237.467,22.525,238.023,23.342,238.725,24.022z M239.02,18.519c0-0.708,0.133-1.384,0.402-2.013
			c0.268-0.629,0.639-1.187,1.105-1.653c0.471-0.469,1.02-0.842,1.639-1.109c0.621-0.266,1.291-0.399,1.996-0.399
			c0.709,0,1.383,0.134,2.012,0.401c0.631,0.268,1.188,0.641,1.656,1.107c0.465,0.466,0.84,1.024,1.107,1.653
			s0.402,1.308,0.402,1.995c-0.041,0.752-0.201,1.449-0.479,2.069c-0.275,0.623-0.656,1.169-1.119,1.627
			c-0.469,0.459-1.02,0.821-1.625,1.08c-1.236,0.52-2.732,0.509-3.951-0.016c-0.619-0.268-1.174-0.641-1.639-1.107
			c-0.467-0.469-0.838-1.02-1.105-1.641C239.152,19.896,239.02,19.224,239.02,18.519z"/>
		<path fill="#59595C" d="M255.668,24.264c0.426,0.544,0.979,1.007,1.648,1.375c0.678,0.371,1.521,0.569,2.512,0.592h0.006
			c0.355,0,0.66-0.125,0.91-0.375c0.25-0.248,0.375-0.554,0.375-0.909c0-0.354-0.125-0.66-0.375-0.91
			c-0.246-0.248-0.555-0.373-0.898-0.373l0,0c-0.611-0.018-1.098-0.143-1.449-0.375c-0.371-0.236-0.656-0.513-0.854-0.819
			c-0.201-0.31-0.334-0.614-0.396-0.901c-0.08-0.371-0.098-0.565-0.098-0.661V7.041c0-0.357-0.125-0.663-0.377-0.911
			c-0.494-0.495-1.324-0.495-1.816,0c-0.25,0.248-0.373,0.554-0.373,0.911v13.866c0,0.479,0.094,1.026,0.271,1.627
			C254.941,23.141,255.25,23.724,255.668,24.264z"/>
		<path fill="#59595C" d="M162.527,42.508c0-1.041-0.205-2.037-0.611-2.965c-0.402-0.919-0.955-1.741-1.647-2.441
			c-0.687-0.701-1.513-1.261-2.446-1.665c-1.857-0.801-4.165-0.806-6.03-0.031c-0.919,0.379-1.746,0.917-2.446,1.598
			c-0.701,0.683-1.263,1.502-1.665,2.435c-0.406,0.935-0.611,1.969-0.611,3.07v12.029c0,0.357,0.129,0.664,0.375,0.911
			c0.25,0.248,0.553,0.373,0.91,0.373c0.353,0,0.661-0.125,0.911-0.373c0.245-0.247,0.371-0.554,0.371-0.911v-6.57
			c0.566,0.521,1.209,0.986,1.919,1.396c0.982,0.567,2.084,0.874,3.29,0.917c1.022,0,2.008-0.209,2.937-0.625
			c0.919-0.412,1.741-0.977,2.442-1.676c0.695-0.699,1.262-1.526,1.674-2.457C162.313,44.584,162.527,43.57,162.527,42.508z
			 M159.957,42.508c0,0.706-0.134,1.385-0.402,2.012c-0.268,0.632-0.639,1.188-1.107,1.656c-0.464,0.466-1.022,0.838-1.651,1.106
			c-1.236,0.524-2.728,0.536-3.964,0.017c-0.611-0.26-1.151-0.621-1.607-1.078c-0.459-0.458-0.839-1.014-1.129-1.648
			c-0.286-0.629-0.442-1.327-0.459-2.064c0-0.705,0.134-1.377,0.401-1.994c0.268-0.621,0.643-1.174,1.107-1.641
			c0.469-0.469,1.022-0.841,1.643-1.109c0.621-0.266,1.29-0.402,1.995-0.402s1.384,0.136,2.013,0.402
			c0.629,0.27,1.187,0.643,1.651,1.109c0.468,0.466,0.844,1.02,1.107,1.641C159.823,41.131,159.957,41.803,159.957,42.508z"/>
		<path fill="#59595C" d="M177.533,49.938c0.25,0.248,0.559,0.373,0.91,0.373c0.359,0,0.662-0.125,0.912-0.373
			c0.244-0.247,0.375-0.555,0.375-0.91v-6.459c0-1.063-0.215-2.075-0.631-3.013c-0.41-0.931-0.973-1.758-1.672-2.457
			c-0.697-0.699-1.523-1.263-2.443-1.676c-0.924-0.416-1.914-0.625-2.949-0.625l0,0c-1.098,0.042-2.135,0.272-3.076,0.685
			s-1.768,0.973-2.459,1.663s-1.24,1.509-1.634,2.431c-0.394,0.924-0.589,1.933-0.589,2.992c0,1.104,0.205,2.137,0.606,3.071
			s0.964,1.755,1.665,2.435c0.701,0.679,1.527,1.217,2.446,1.598c0.924,0.385,1.933,0.578,2.991,0.578
			c1.156,0,2.25-0.287,3.244-0.854c0.715-0.412,1.361-0.885,1.934-1.416v1.047C177.164,49.383,177.289,49.69,177.533,49.938z
			 M177.164,42.553c-0.041,0.75-0.201,1.447-0.479,2.069c-0.277,0.62-0.656,1.169-1.121,1.627c-0.467,0.458-1.016,0.821-1.623,1.077
			c-1.242,0.523-2.737,0.512-3.951-0.015c-0.621-0.266-1.174-0.639-1.638-1.107c-0.47-0.466-0.844-1.018-1.112-1.64
			c-0.263-0.619-0.4-1.288-0.4-1.996c0-0.705,0.138-1.383,0.405-2.01c0.264-0.632,0.638-1.188,1.107-1.657
			c0.464-0.466,1.017-0.839,1.638-1.107c0.621-0.266,1.29-0.402,1.996-0.402c0.705,0,1.383,0.136,2.014,0.402
			c0.627,0.268,1.186,0.641,1.654,1.107c0.465,0.469,0.84,1.024,1.107,1.655C177.025,41.188,177.164,41.863,177.164,42.553z"/>
		<path fill="#59595C" d="M184.498,30.18c-0.496-0.493-1.322-0.496-1.822,0c-0.246,0.25-0.371,0.556-0.371,0.911v13.866
			c0,0.479,0.094,1.026,0.273,1.627c0.188,0.609,0.49,1.191,0.914,1.731c0.424,0.545,0.979,1.007,1.648,1.372
			c0.678,0.371,1.521,0.572,2.512,0.592h0.004c0.357,0,0.662-0.125,0.912-0.373c0.25-0.247,0.375-0.553,0.375-0.908
			c0-0.356-0.125-0.662-0.375-0.91s-0.555-0.375-0.902-0.375l0,0c-0.607-0.018-1.094-0.143-1.445-0.373
			c-0.371-0.238-0.656-0.513-0.854-0.82c-0.201-0.311-0.334-0.614-0.396-0.9c-0.082-0.372-0.1-0.566-0.1-0.662V31.091
			C184.871,30.733,184.742,30.428,184.498,30.18z"/>
		<path fill="#59595C" d="M191.92,42.683c0.414,0.415,0.91,0.747,1.469,0.989c0.557,0.242,1.164,0.363,1.799,0.363h3.584
			c0.504,0,0.924,0.179,1.289,0.547c0.371,0.366,0.551,0.787,0.551,1.292c0,0.507-0.18,0.929-0.551,1.294
			c-0.361,0.369-0.785,0.545-1.289,0.545h-6.615c-0.352,0-0.66,0.127-0.91,0.375c-0.246,0.248-0.371,0.554-0.371,0.91
			c0,0.355,0.125,0.661,0.375,0.908c0.246,0.248,0.555,0.373,0.906,0.373h6.615c0.594,0,1.164-0.115,1.705-0.348
			c0.535-0.23,1.01-0.547,1.406-0.944c0.396-0.396,0.715-0.868,0.945-1.403c0.229-0.541,0.346-1.114,0.346-1.71
			c0-0.594-0.117-1.167-0.346-1.708c-0.23-0.535-0.549-1.008-0.945-1.406c-0.396-0.395-0.871-0.711-1.406-0.941
			c-0.541-0.231-1.111-0.348-1.705-0.348h-3.584c-0.566,0-1.041-0.199-1.447-0.607c-0.404-0.408-0.605-0.881-0.605-1.448
			c0-0.564,0.201-1.038,0.605-1.446c0.412-0.411,0.889-0.618,1.447-0.636h6.244c0.357,0,0.66-0.127,0.91-0.375
			c0.246-0.248,0.375-0.553,0.375-0.908c0-0.357-0.129-0.663-0.375-0.911c-0.25-0.248-0.553-0.373-0.91-0.373h-6.244
			c-0.635,0-1.242,0.123-1.799,0.364c-0.559,0.241-1.055,0.573-1.469,0.989c-0.416,0.417-0.746,0.915-0.986,1.484
			c-0.24,0.567-0.365,1.178-0.365,1.812c0,0.639,0.125,1.243,0.365,1.802C191.174,41.774,191.504,42.268,191.92,42.683z"/>
		<path fill="#59595C" d="M220.068,55.446c0.244-0.247,0.369-0.554,0.369-0.909V36.019c0-0.355-0.125-0.661-0.369-0.911
			c-0.496-0.493-1.326-0.493-1.822,0.002c-0.246,0.248-0.375,0.553-0.375,0.908v6.747c-0.035,0.689-0.197,1.344-0.473,1.943
			c-0.277,0.603-0.646,1.129-1.107,1.566c-0.455,0.439-1,0.795-1.611,1.051c-1.236,0.523-2.732,0.512-3.945-0.015
			c-0.621-0.266-1.174-0.639-1.643-1.107c-0.469-0.466-0.84-1.018-1.107-1.64c-0.268-0.619-0.402-1.288-0.402-1.996v-6.55
			c0-0.357-0.125-0.663-0.375-0.908c-0.494-0.496-1.32-0.496-1.816-0.002c-0.25,0.248-0.375,0.554-0.375,0.911v6.55
			c0,1.064,0.205,2.076,0.611,3.012c0.402,0.932,0.955,1.756,1.648,2.443c0.686,0.691,1.508,1.245,2.441,1.648
			c0.938,0.404,1.949,0.607,3.012,0.607c1.148,0,2.223-0.232,3.201-0.689c0.719-0.334,1.371-0.766,1.941-1.283v6.23
			c0,0.355,0.129,0.662,0.375,0.911c0.246,0.248,0.553,0.373,0.91,0.373C219.51,55.821,219.816,55.696,220.068,55.446z"/>
		<path fill="#006072" d="M158.202,66.813c-0.397-0.396-0.87-0.714-1.406-0.943c-0.54-0.23-1.116-0.35-1.709-0.35h-3.58
			c-0.567,0-1.04-0.197-1.446-0.604c-0.406-0.408-0.607-0.882-0.607-1.449c0-0.564,0.201-1.039,0.607-1.448
			c0.411-0.408,0.888-0.618,1.446-0.636h6.245c0.357,0,0.661-0.125,0.911-0.373c0.245-0.25,0.375-0.555,0.375-0.91
			s-0.13-0.66-0.375-0.908c-0.25-0.248-0.554-0.375-0.911-0.375h-6.245c-0.634,0-1.236,0.123-1.799,0.365
			c-0.558,0.241-1.054,0.574-1.468,0.989c-0.416,0.415-0.75,0.915-0.987,1.481c-0.241,0.572-0.366,1.182-0.366,1.814
			c0,0.637,0.125,1.242,0.366,1.801c0.241,0.559,0.571,1.053,0.987,1.465c0.415,0.417,0.911,0.75,1.468,0.99
			c0.558,0.242,1.165,0.364,1.799,0.364h3.58c0.504,0,0.928,0.179,1.298,0.545c0.366,0.366,0.545,0.79,0.545,1.294
			s-0.179,0.929-0.545,1.295c-0.37,0.365-0.794,0.545-1.298,0.545h-6.611c-0.353,0-0.661,0.125-0.906,0.372
			c-0.25,0.247-0.375,0.556-0.375,0.911c0,0.356,0.125,0.662,0.375,0.91c0.246,0.248,0.554,0.373,0.906,0.373h6.611
			c0.593,0,1.169-0.119,1.709-0.349c0.536-0.229,1.009-0.547,1.406-0.944c0.397-0.396,0.714-0.87,0.942-1.406
			c0.232-0.537,0.348-1.111,0.348-1.707c0-0.594-0.116-1.167-0.348-1.707C158.916,67.684,158.599,67.21,158.202,66.813z"/>
		<path fill="#006072" d="M172.95,70.297c-0.482,0.461-1.036,0.826-1.647,1.082c-1.214,0.514-2.74,0.518-3.977-0.016
			c-0.621-0.268-1.174-0.639-1.639-1.107c-0.469-0.467-0.839-1.02-1.107-1.641c-0.268-0.615-0.4-1.287-0.4-1.994
			c0-0.708,0.133-1.387,0.4-2.014c0.269-0.629,0.639-1.188,1.107-1.654c0.465-0.466,1.018-0.838,1.643-1.105
			c1.232-0.534,2.759-0.529,3.973-0.016c0.62,0.26,1.174,0.606,1.643,1.015c0.49,0.495,1.32,0.495,1.816,0
			c0.318-0.314,0.416-0.694,0.281-1.091c-0.111-0.34-0.25-0.574-0.416-0.71c-0.209-0.189-0.484-0.411-0.816-0.663
			c-0.342-0.254-0.736-0.496-1.164-0.717c-0.434-0.223-0.929-0.414-1.469-0.575c-0.549-0.161-1.152-0.243-1.803-0.243
			c0,0,0,0-0.006,0c-1.098,0.042-2.133,0.274-3.07,0.688c-0.945,0.412-1.771,0.971-2.459,1.66c-0.691,0.689-1.241,1.509-1.634,2.433
			c-0.393,0.926-0.593,1.933-0.593,2.993c0,1.1,0.205,2.133,0.605,3.07c0.406,0.934,0.965,1.752,1.67,2.433
			c0.701,0.681,1.521,1.219,2.446,1.601c0.925,0.381,1.929,0.576,2.991,0.576c0.655,0,1.275-0.069,1.838-0.208
			c0.559-0.139,1.071-0.315,1.527-0.526c0.455-0.213,0.855-0.444,1.191-0.694c0.33-0.241,0.594-0.464,0.789-0.659
			c0.283-0.283,0.434-0.611,0.447-0.973c0.018-0.365-0.107-0.689-0.357-0.939C174.266,69.808,173.432,69.813,172.95,70.297z"/>
		<path fill="#006072" d="M190.59,61.15c-0.701-0.701-1.521-1.264-2.441-1.676c-0.93-0.415-1.916-0.627-2.951-0.627l0,0
			c-1.102,0.042-2.133,0.274-3.074,0.688c-0.941,0.412-1.773,0.971-2.459,1.66c-0.693,0.691-1.242,1.509-1.635,2.433
			c-0.393,0.921-0.594,1.931-0.594,2.993c0,1.102,0.205,2.135,0.611,3.07c0.402,0.934,0.965,1.752,1.666,2.433
			s1.521,1.219,2.445,1.601c0.924,0.381,1.928,0.576,2.99,0.576c1.08,0,2.104-0.206,3.039-0.609
			c0.934-0.402,1.756-0.962,2.447-1.663c0.691-0.7,1.244-1.522,1.646-2.444c0.402-0.926,0.607-1.924,0.607-2.963
			c0-1.063-0.211-2.076-0.625-3.014C191.85,62.676,191.285,61.85,190.59,61.15z M190.322,66.621c0,0.705-0.135,1.377-0.402,1.994
			c-0.264,0.621-0.637,1.174-1.107,1.641c-0.467,0.467-1.021,0.84-1.65,1.107c-1.254,0.533-2.777,0.533-4.008,0
			c-0.621-0.266-1.176-0.639-1.643-1.107c-0.471-0.467-0.84-1.02-1.107-1.641c-0.268-0.617-0.402-1.289-0.402-1.994
			c0-0.708,0.139-1.384,0.402-2.014c0.268-0.629,0.643-1.188,1.107-1.654c0.467-0.468,1.021-0.84,1.643-1.105
			c0.615-0.269,1.289-0.402,1.994-0.402s1.385,0.134,2.014,0.402c0.629,0.268,1.184,0.64,1.65,1.105
			c0.471,0.467,0.84,1.025,1.107,1.654C190.188,65.237,190.322,65.913,190.322,66.621z"/>
		<path fill="#006072" d="M208.363,70.146c-0.295-0.214-0.615-0.301-0.955-0.261s-0.621,0.186-0.826,0.415
			c-0.455,0.457-0.994,0.822-1.607,1.078c-1.217,0.514-2.744,0.518-3.977-0.016c-0.619-0.266-1.174-0.639-1.643-1.107
			c-0.469-0.467-0.838-1.02-1.105-1.641c-0.268-0.617-0.402-1.289-0.402-1.994v-5.33h6.432c0.416,0,0.754-0.123,1.008-0.366
			c0.266-0.249,0.398-0.558,0.398-0.917c0-0.353-0.139-0.67-0.398-0.915c-0.254-0.243-0.592-0.366-1.008-0.366h-6.432v-3.586
			c0-0.355-0.125-0.66-0.371-0.908c-0.494-0.496-1.324-0.496-1.82,0c-0.25,0.248-0.375,0.553-0.375,0.908v11.48
			c0,1.063,0.205,2.075,0.611,3.008c0.402,0.936,0.955,1.756,1.646,2.446c0.688,0.689,1.514,1.245,2.441,1.647
			c0.938,0.404,1.951,0.609,3.014,0.609c1.08,0,2.115-0.21,3.07-0.625c0.957-0.416,1.795-1.002,2.535-1.797
			c0.188-0.295,0.256-0.611,0.201-0.938C208.752,70.66,208.613,70.393,208.363,70.146z"/>
		<path fill="#006072" d="M216.045,71.766c0,0,0,0-0.004,0c-0.607-0.019-1.094-0.144-1.447-0.376
			c-0.369-0.236-0.654-0.513-0.852-0.819c-0.201-0.313-0.334-0.613-0.396-0.898c-0.086-0.373-0.1-0.566-0.1-0.663V55.141
			c0-0.353-0.129-0.66-0.375-0.908c-0.494-0.496-1.324-0.496-1.82,0c-0.246,0.248-0.371,0.556-0.371,0.908v13.868
			c0,0.478,0.09,1.024,0.273,1.627c0.188,0.609,0.49,1.189,0.914,1.729c0.424,0.545,0.979,1.007,1.646,1.373
			c0.68,0.373,1.523,0.57,2.514,0.594h0.006c0.355,0,0.664-0.125,0.91-0.373c0.244-0.25,0.375-0.557,0.375-0.91
			c0-0.355-0.131-0.661-0.375-0.911C216.697,71.891,216.389,71.766,216.045,71.766z"/>
		<path fill="#006072" d="M232.064,61.15c-0.701-0.698-1.521-1.264-2.441-1.676c-0.928-0.415-1.914-0.627-2.949-0.627l0,0
			c-1.1,0.042-2.133,0.274-3.076,0.688c-0.941,0.412-1.768,0.971-2.459,1.66s-1.24,1.509-1.635,2.433
			c-0.393,0.924-0.592,1.931-0.592,2.993c0,1.102,0.205,2.135,0.611,3.07c0.4,0.934,0.959,1.752,1.664,2.433
			c0.701,0.681,1.521,1.219,2.445,1.601c0.926,0.381,1.934,0.576,2.992,0.576c1.156,0,2.244-0.288,3.24-0.855
			c0.719-0.408,1.365-0.881,1.932-1.415v1.05c0,0.354,0.131,0.66,0.375,0.91c0.246,0.246,0.555,0.373,0.91,0.373
			c0.357,0,0.662-0.127,0.912-0.375c0.244-0.248,0.369-0.554,0.369-0.908v-6.459c0-1.061-0.209-2.076-0.623-3.014
			C233.324,62.676,232.762,61.848,232.064,61.15z M231.801,66.604c-0.039,0.752-0.199,1.447-0.477,2.068
			c-0.281,0.625-0.656,1.172-1.125,1.627c-0.469,0.459-1.014,0.821-1.625,1.08c-1.236,0.521-2.73,0.512-3.945-0.016
			c-0.619-0.268-1.174-0.639-1.643-1.107c-0.469-0.467-0.84-1.02-1.107-1.641c-0.264-0.615-0.4-1.287-0.4-1.994
			c0-0.708,0.137-1.387,0.4-2.014c0.268-0.629,0.639-1.188,1.107-1.654c0.469-0.466,1.023-0.84,1.643-1.105
			c0.615-0.269,1.289-0.402,1.996-0.402c0.705,0,1.383,0.134,2.012,0.402c0.631,0.266,1.184,0.638,1.652,1.105
			c0.469,0.467,0.838,1.025,1.107,1.654C231.664,65.234,231.797,65.913,231.801,66.604z"/>
		<path fill="#006072" d="M250.049,61.043c-0.691-0.691-1.518-1.244-2.445-1.646c-1.879-0.811-4.146-0.811-6.021,0
			c-0.934,0.402-1.754,0.955-2.447,1.646c-0.691,0.69-1.244,1.514-1.646,2.444c-0.402,0.938-0.607,1.95-0.607,3.011v6.551
			c0,0.354,0.125,0.66,0.375,0.91c0.492,0.496,1.322,0.496,1.818,0c0.248-0.25,0.373-0.557,0.373-0.91v-6.551
			c0-0.707,0.135-1.377,0.398-1.995c0.268-0.62,0.643-1.174,1.111-1.641c0.469-0.469,1.018-0.841,1.637-1.109
			c1.238-0.53,2.756-0.53,3.992,0c0.625,0.269,1.174,0.641,1.643,1.109c0.465,0.467,0.838,1.021,1.107,1.641
			c0.268,0.618,0.4,1.29,0.4,1.995v6.551c0,0.356,0.125,0.662,0.375,0.91c0.246,0.248,0.553,0.373,0.906,0.373
			c0.357,0,0.666-0.125,0.91-0.373c0.25-0.248,0.375-0.554,0.375-0.91v-6.551c0-1.061-0.205-2.073-0.611-3.011
			C251.289,62.557,250.736,61.733,250.049,61.043z"/>
		<path fill="#006072" d="M269.314,54.295c-0.492-0.496-1.322-0.498-1.816-0.003c-0.252,0.248-0.375,0.554-0.375,0.911v5.959
			c-0.563-0.52-1.205-0.986-1.916-1.397c-0.986-0.565-2.088-0.872-3.289-0.917c-1.021,0-2.014,0.212-2.938,0.627
			c-0.924,0.412-1.746,0.975-2.441,1.676c-0.701,0.699-1.264,1.527-1.678,2.457c-0.416,0.938-0.625,1.951-0.625,3.014
			c0,1.042,0.205,2.039,0.611,2.963c0.402,0.924,0.955,1.746,1.643,2.444c0.691,0.701,1.514,1.261,2.445,1.663
			c0.938,0.403,1.961,0.609,3.041,0.609c1.039,0,2.039-0.195,2.977-0.576c0.932-0.382,1.758-0.92,2.459-1.601
			c0.701-0.679,1.264-1.497,1.67-2.433c0.4-0.936,0.607-1.969,0.607-3.07V55.203C269.689,54.846,269.564,54.54,269.314,54.295z
			 M267.123,66.621c0,0.705-0.135,1.375-0.402,1.994c-0.268,0.621-0.639,1.174-1.107,1.641c-0.469,0.469-1.018,0.84-1.643,1.107
			c-1.232,0.533-2.75,0.533-4.004,0c-0.633-0.268-1.188-0.641-1.656-1.107s-0.838-1.02-1.107-1.641
			c-0.266-0.617-0.4-1.289-0.4-1.994c0-0.708,0.135-1.384,0.4-2.014c0.27-0.629,0.639-1.188,1.107-1.654
			c0.469-0.466,1.023-0.838,1.656-1.105c0.629-0.269,1.303-0.402,2.01-0.402c0.686,0,1.342,0.129,1.953,0.387
			c0.607,0.258,1.152,0.619,1.607,1.075c0.455,0.457,0.83,1.011,1.107,1.642C266.926,65.186,267.086,65.887,267.123,66.621z"/>
	</g>
</g>
</svg>
