<?xml version="1.0" encoding="utf-8"?>
<!-- Generator: Adobe Illustrator 16.0.0, SVG Export Plug-In . SVG Version: 6.00 Build 0)  -->
<!DOCTYPE svg PUBLIC "-//W3C//DTD SVG 1.0//EN" "http://www.w3.org/TR/2001/REC-SVG-20010904/DTD/svg10.dtd">
<svg version="1.0" id="Layer_1" xmlns="http://www.w3.org/2000/svg" xmlns:xlink="http://www.w3.org/1999/xlink" x="0px" y="0px"
	 width="483.286px" height="153.684px" viewBox="0 0 483.286 153.684" enable-background="new 0 0 483.286 153.684"
	 xml:space="preserve">
<g>
	<path d="M266.986,92.987l-1.935,6.93l-1.935-6.93c-0.346-1.243,0.521-2.539,1.813-2.61c0.043-0.004,0.083-0.007,0.122-0.007
		c0.044,0,0.083,0.003,0.123,0.007C266.466,90.448,267.336,91.744,266.986,92.987"/>
	<path d="M273.543,95.385l-4.722,5.424l1.23-7.084c0.219-1.278,1.56-2.068,2.758-1.587c0.039,0.018,0.075,0.036,0.111,0.051
		c0.039,0.021,0.075,0.035,0.111,0.058C274.165,92.872,274.396,94.411,273.543,95.385"/>
	<path d="M278.434,100.367l-6.596,2.869l4.153-5.869c0.749-1.057,2.302-1.2,3.173-0.244c0.028,0.028,0.054,0.062,0.079,0.094
		c0.028,0.032,0.054,0.064,0.075,0.094C280.074,98.364,279.62,99.848,278.434,100.367"/>
	<path d="M280.71,106.969l-7.188-0.245l6.275-3.517c1.129-0.633,2.589-0.094,2.967,1.143c0.011,0.037,0.022,0.08,0.032,0.12
		c0.011,0.039,0.018,0.079,0.024,0.118C283.052,105.862,282.001,107.012,280.71,106.969"/>
	<path d="M279.927,113.902l-6.387-3.309l7.177-0.478c1.291-0.086,2.381,1.029,2.188,2.305c-0.005,0.044-0.012,0.083-0.019,0.123
		c-0.011,0.043-0.021,0.082-0.032,0.122C282.519,113.914,281.077,114.5,279.927,113.902"/>
	<path d="M276.24,119.829l-4.345-5.731l6.686,2.653c1.201,0.479,1.704,1.95,0.985,3.024c-0.021,0.033-0.047,0.068-0.071,0.102
		c-0.025,0.031-0.051,0.061-0.079,0.093C278.574,120.951,277.021,120.861,276.24,119.829"/>
	<path d="M270.363,123.597l-1.459-7.04l4.897,5.264c0.881,0.95,0.701,2.496-0.409,3.158c-0.036,0.021-0.072,0.04-0.108,0.058
		c-0.036,0.021-0.075,0.036-0.111,0.054C271.993,125.62,270.626,124.864,270.363,123.597"/>
	<path d="M263.438,124.475l1.708-6.984l2.161,6.858c0.385,1.233-0.438,2.557-1.726,2.673c-0.043,0.007-0.083,0.007-0.122,0.007
		c-0.044,0-0.083,0-0.126,0C264.038,126.997,263.132,125.734,263.438,124.475"/>
	<path d="M256.81,122.292l4.546-5.573l-1,7.119c-0.183,1.284-1.492,2.122-2.708,1.672c-0.039-0.014-0.079-0.028-0.114-0.042
		c-0.036-0.019-0.072-0.037-0.108-0.058C256.268,124.828,255.99,123.295,256.81,122.292"/>
	<path d="M251.761,117.47l6.499-3.079l-3.964,6.003c-0.712,1.082-2.259,1.27-3.16,0.345c-0.029-0.032-0.059-0.062-0.083-0.09
		c-0.029-0.032-0.055-0.065-0.08-0.094C250.183,119.527,250.592,118.028,251.761,117.47"/>
	<path d="M249.272,110.95l7.192,0.011l-6.157,3.719c-1.107,0.669-2.585,0.176-3.002-1.05c-0.015-0.036-0.025-0.076-0.037-0.115
		c-0.011-0.043-0.021-0.079-0.031-0.123C246.963,112.125,247.978,110.946,249.272,110.95"/>
	<path d="M249.829,103.992l6.492,3.1l-7.16,0.712c-1.284,0.126-2.41-0.95-2.263-2.236c0.007-0.044,0.012-0.079,0.019-0.123
		c0.007-0.038,0.014-0.079,0.025-0.118C247.237,104.064,248.664,103.434,249.829,103.992"/>
	<path d="M253.321,97.95l4.531,5.588l-6.769-2.438c-1.219-0.436-1.769-1.893-1.082-2.989c0.022-0.031,0.043-0.067,0.069-0.104
		c0.021-0.032,0.046-0.064,0.071-0.093C250.952,96.9,252.509,96.943,253.321,97.95"/>
	<path d="M259.075,93.994l1.684,6.991l-5.063-5.106c-0.91-0.921-0.785-2.475,0.309-3.164c0.032-0.026,0.072-0.044,0.104-0.065
		c0.036-0.021,0.075-0.039,0.108-0.058C257.382,92.027,258.771,92.735,259.075,93.994"/>
	<path d="M264.959,102.301c3.527,0,6.4,2.873,6.4,6.401c0,3.531-2.873,6.401-6.4,6.401c-3.528,0-6.401-2.87-6.401-6.401
		C258.558,105.174,261.431,102.301,264.959,102.301 M264.959,100.258c-4.665,0-8.448,3.783-8.448,8.444
		c0,4.667,3.783,8.447,8.448,8.447c4.664,0,8.443-3.78,8.443-8.447C273.402,104.042,269.623,100.258,264.959,100.258"/>
	<path d="M267.44,108.703c0,1.373-1.111,2.48-2.481,2.48s-2.482-1.107-2.482-2.48c0-1.366,1.112-2.481,2.482-2.481
		S267.44,107.336,267.44,108.703"/>
	<polygon points="65.841,18.398 65.841,144.531 58.321,144.531 58.321,18.398 24.496,18.398 24.496,10.88 99.671,10.88 
		99.671,18.398 	"/>
	<polygon points="189.536,18.398 116.695,18.398 116.695,10.88 202.482,10.88 129.559,137.012 202.482,137.012 202.482,144.531 
		116.695,144.531 	"/>
	<polygon points="264.948,7.79 215.162,144.531 223.182,144.531 264.948,29.758 306.714,144.531 314.651,144.531 	"/>
	<path d="M364.523,98.086c-0.724,0.058-1.475,0.086-2.251,0.086h-22.722v46.358h-7.52V10.88h35.085
		c10.188,1.392,18.847,5.653,25.978,12.781c8.52,8.52,12.781,18.794,12.781,30.823c0,12.085-4.262,22.386-12.781,30.907
		c-5.904,5.905-12.668,9.774-20.3,11.609l30.823,47.53h-9.271L364.523,98.086z M339.551,18.481v72.09h22.722
		c9.91,0,18.387-3.524,25.432-10.565c7.045-7.045,10.569-15.552,10.569-25.521s-3.524-18.459-10.569-25.477
		c-7.045-7.017-15.521-10.526-25.432-10.526H339.551z"/>
	<path d="M447.908,122.649l-1.32,4.729l-1.323-4.729c-0.238-0.853,0.356-1.733,1.237-1.784c0.029-0.004,0.058-0.007,0.086-0.007
		c0.029,0,0.054,0.003,0.083,0.007C447.553,120.916,448.146,121.796,447.908,122.649"/>
	<path d="M452.386,124.286l-3.227,3.699l0.838-4.837c0.151-0.87,1.068-1.413,1.885-1.082c0.025,0.015,0.053,0.025,0.08,0.036
		c0.023,0.014,0.049,0.024,0.071,0.039C452.81,122.565,452.964,123.62,452.386,124.286"/>
	<path d="M455.723,127.683l-4.503,1.96l2.837-4.01c0.511-0.72,1.568-0.816,2.166-0.165c0.018,0.021,0.035,0.042,0.054,0.065
		c0.021,0.021,0.036,0.042,0.05,0.063C456.844,126.316,456.532,127.331,455.723,127.683"/>
	<path d="M457.276,132.192l-4.91-0.168l4.287-2.399c0.77-0.431,1.771-0.064,2.025,0.781c0.01,0.024,0.018,0.054,0.021,0.082
		c0.007,0.025,0.015,0.055,0.019,0.079C458.876,131.438,458.16,132.222,457.276,132.192"/>
	<path d="M456.744,136.926l-4.362-2.26l4.901-0.323c0.881-0.058,1.625,0.701,1.492,1.575c-0.003,0.029-0.007,0.058-0.011,0.082
		c-0.008,0.025-0.015,0.055-0.021,0.083C458.513,136.936,457.528,137.334,456.744,136.926"/>
	<path d="M454.227,140.975l-2.968-3.913l4.563,1.812c0.821,0.325,1.166,1.332,0.673,2.064c-0.015,0.022-0.028,0.044-0.049,0.068
		c-0.016,0.022-0.034,0.044-0.052,0.065C455.819,141.744,454.759,141.679,454.227,140.975"/>
	<path d="M450.213,143.549l-0.997-4.808l3.346,3.592c0.601,0.647,0.479,1.705-0.281,2.159c-0.024,0.014-0.05,0.027-0.075,0.038
		c-0.024,0.012-0.051,0.025-0.075,0.037C451.324,144.927,450.393,144.414,450.213,143.549"/>
	<path d="M445.483,144.147l1.166-4.77l1.475,4.683c0.266,0.845-0.299,1.749-1.18,1.827c-0.025,0-0.054,0.004-0.084,0.008
		c-0.027,0-0.053,0-0.082,0C445.897,145.873,445.276,145.006,445.483,144.147"/>
	<path d="M440.956,142.658l3.104-3.805l-0.683,4.861c-0.123,0.878-1.019,1.446-1.849,1.145c-0.025-0.015-0.054-0.021-0.075-0.037
		c-0.026-0.007-0.054-0.021-0.075-0.034C440.59,144.387,440.398,143.34,440.956,142.658"/>
	<path d="M437.511,139.364l4.438-2.101l-2.708,4.096c-0.489,0.737-1.543,0.871-2.158,0.233c-0.021-0.014-0.039-0.035-0.057-0.057
		c-0.019-0.021-0.036-0.043-0.054-0.064C436.432,140.77,436.709,139.745,437.511,139.364"/>
	<path d="M435.811,134.911l4.913,0.008l-4.205,2.539c-0.759,0.456-1.766,0.123-2.053-0.713c-0.008-0.027-0.02-0.057-0.026-0.082
		c-0.007-0.024-0.014-0.054-0.017-0.082C434.235,135.716,434.926,134.911,435.811,134.911"/>
	<path d="M436.191,130.162l4.43,2.117l-4.886,0.482c-0.878,0.086-1.647-0.647-1.543-1.525c0-0.028,0.007-0.058,0.011-0.086
		c0.003-0.024,0.011-0.05,0.014-0.079C434.423,130.208,435.393,129.78,436.191,130.162"/>
	<path d="M438.575,126.036l3.094,3.813l-4.621-1.661c-0.831-0.298-1.209-1.295-0.741-2.043c0.019-0.021,0.032-0.043,0.046-0.068
		c0.016-0.024,0.033-0.047,0.051-0.068C436.958,125.317,438.019,125.345,438.575,126.036"/>
	<path d="M442.503,123.333l1.154,4.775l-3.46-3.489c-0.622-0.625-0.536-1.687,0.209-2.16c0.025-0.019,0.05-0.033,0.072-0.044
		c0.025-0.015,0.05-0.024,0.075-0.039C441.349,121.991,442.298,122.476,442.503,123.333"/>
	<path d="M446.524,129.006c2.408,0,4.368,1.96,4.368,4.373c0,2.409-1.96,4.369-4.368,4.369c-2.414,0-4.374-1.96-4.374-4.369
		C442.15,130.966,444.11,129.006,446.524,129.006 M446.524,127.612c-3.188,0-5.77,2.581-5.77,5.768s2.582,5.769,5.77,5.769
		c3.182,0,5.764-2.582,5.764-5.769S449.706,127.612,446.524,127.612"/>
	<path d="M448.218,133.379c0,0.935-0.76,1.69-1.693,1.69c-0.939,0-1.694-0.756-1.694-1.69s0.755-1.698,1.694-1.698
		C447.458,131.681,448.218,132.445,448.218,133.379"/>
	<path d="M446.502,20.151L446.502,20.151c-6.868,0-12.162,6.051-11.253,12.856l11.245,84.063l11.257-84.062
		C458.661,26.202,453.367,20.151,446.502,20.151"/>
	<rect x="434.217" y="10.88" width="24.537" height="3.909"/>
</g>
</svg>
