<?xml version="1.0" encoding="UTF-8" standalone="no"?>
<!-- Created with Inkscape (http://www.inkscape.org/) -->

<svg
   xmlns:dc="http://purl.org/dc/elements/1.1/"
   xmlns:cc="http://creativecommons.org/ns#"
   xmlns:rdf="http://www.w3.org/1999/02/22-rdf-syntax-ns#"
   xmlns:svg="http://www.w3.org/2000/svg"
   xmlns="http://www.w3.org/2000/svg"
   xmlns:sodipodi="http://sodipodi.sourceforge.net/DTD/sodipodi-0.dtd"
   xmlns:inkscape="http://www.inkscape.org/namespaces/inkscape"
   width="502"
   height="341.33813"
   viewBox="0 0 132.82083 90.312385"
   version="1.1"
   id="svg2084"
   inkscape:version="0.92.4 (5da689c313, 2019-01-14)"
   sodipodi:docname="NHS Lothian logo.svg">
  <defs
     id="defs2078" />
  <sodipodi:namedview
     id="base"
     pagecolor="#ffffff"
     bordercolor="#666666"
     borderopacity="1.0"
     inkscape:pageopacity="0.0"
     inkscape:pageshadow="2"
     inkscape:zoom="0.98994949"
     inkscape:cx="-5.3161763"
     inkscape:cy="-26.592496"
     inkscape:document-units="mm"
     inkscape:current-layer="layer1"
     showgrid="false"
     units="px"
     fit-margin-top="1"
     fit-margin-left="1"
     fit-margin-bottom="1"
     fit-margin-right="1"
     inkscape:window-width="1920"
     inkscape:window-height="1001"
     inkscape:window-x="-9"
     inkscape:window-y="-9"
     inkscape:window-maximized="1" />
  <metadata
     id="metadata2081">
    <rdf:RDF>
      <cc:Work
         rdf:about="">
        <dc:format>image/svg+xml</dc:format>
        <dc:type
           rdf:resource="http://purl.org/dc/dcmitype/StillImage" />
        <dc:title></dc:title>
      </cc:Work>
    </rdf:RDF>
  </metadata>
  <g
     inkscape:label="Layer 1"
     inkscape:groupmode="layer"
     id="layer1"
     transform="translate(-153.18429,-36.006663)">
    <g
       transform="matrix(1.9277449,0,0,1.9277449,-58.023241,-869.25679)"
       id="g2055">
      <path
         style="fill:#00427f;fill-opacity:1;fill-rule:nonzero;stroke:none"
         d="m 166.125,477.56641 c -2.44141,-0.72266 -3.89063,-0.87891 -3.89063,-2.23829 0,-0.93359 0.875,-1.625 2.38282,-1.625 1.79687,0 4.94531,1.39844 4.94531,1.39844 l 1.60156,-3.70703 c 0,0 -2.83203,-1.66016 -6.36328,-1.66016 -4.73828,0 -7.78906,2.58204 -7.78906,5.99219 0,2.95703 1.93359,4.28906 6.0664,5.38281 2.32422,0.60938 3.74219,1.08985 3.74219,2.60938 0,1.11719 -1.05469,1.94531 -2.41406,1.94531 -3.05078,0 -6.33203,-1.85547 -6.33203,-1.85547 l -1.71485,3.63282 c 0,0 2.83594,2.24609 7.35157,2.24609 5.13281,0 8.33203,-2.69141 8.33203,-6.36719 0,-2.85156 -1.92969,-4.58203 -5.91797,-5.7539"
         id="path1351"
         inkscape:connector-curvature="0" />
      <path
         style="fill:#00427f;fill-opacity:1;fill-rule:nonzero;stroke:none"
         d="m 121.86719,470.09375 c -2.30469,0.004 -4.66016,0 -4.66016,0 V 489.125 h 4.83594 l -0.0234,-11.30469 c 0,0 3.78125,6.53125 7.14453,11.30469 3.26563,0.004 4.03516,0 4.03516,0 v -19.02734 h -4.7461 l 0.004,9.91406 c 0,0 -2.65625,-4.62891 -6.58984,-9.91797"
         id="path1353"
         inkscape:connector-curvature="0" />
      <path
         style="fill:#00427f;fill-opacity:1;fill-rule:nonzero;stroke:none"
         d="m 148.78125,489.08984 v -8.19922 h -7.18359 v 8.19922 h -4.83985 v -18.98828 h 4.83985 v 7.21875 h 7.18359 v -7.21875 h 4.82812 v 18.98828 z m 0,0"
         id="path1355"
         inkscape:connector-curvature="0" />
      <path
         style="fill:#0094dc;fill-opacity:1;fill-rule:nonzero;stroke:none"
         d="m 144.07812,500.71094 c -1.57421,-2.82032 -6.9375,-7.48828 -16.46484,-5.95313 -3.61719,0.3125 -5.12109,0.53906 -7.04297,0.39063 -7.58203,-0.58203 -8.90625,-4.76953 -8.97656,-4.9961 h -1.89453 c 0,0 1.04297,8.14453 9.33984,9.51953 2.03125,0.33594 6.26953,-0.0625 9.00781,-0.51171 6.72266,-1.10157 11.8711,-1.27735 16.03907,4.49218 0,0 0.0547,0.0625 0.10156,0.0625 0.0859,0 0.10937,-0.0625 0.10937,-0.0625 0,0 0.54297,-1.10547 -0.21875,-2.9414"
         id="path1357"
         inkscape:connector-curvature="0" />
      <path
         style="fill:#0094dc;fill-opacity:1;fill-rule:nonzero;stroke:none"
         d="m 176.42578,490.15234 c -0.0703,0.22657 -1.47266,4.39453 -9.05859,4.97657 -1.91797,0.14843 -3.42188,-0.0781 -7.04297,-0.39063 -9.44531,-1.51953 -13.44531,3.13672 -14.60156,5.66797 -0.75782,1.69922 -0.34375,3.24609 -0.34375,3.24609 0,0 0.0273,0.0625 0.0977,0.0625 0.0469,0 0.0977,-0.0625 0.0977,-0.0625 4.17187,-5.76953 7.59375,-5.60937 14.32031,-4.51172 2.73828,0.44922 6.97266,0.84766 9.00391,0.51172 8.30078,-1.375 9.42578,-9.5 9.42578,-9.5 z m 0,0"
         id="path1359"
         inkscape:connector-curvature="0" />
      <path
         style="fill:#00427f;fill-opacity:1;fill-rule:nonzero;stroke:none"
         d="M 123.13281,506.88281 H 125 v 8.02344 h 3.67578 v 1.24219 h -5.54297 z m 0,0"
         id="path1361"
         inkscape:connector-curvature="0" />
      <path
         style="fill:#00427f;fill-opacity:1;fill-rule:nonzero;stroke:none"
         d="m 132.23828,516.30859 c 2.07813,0 3.48047,-1.49609 3.48047,-3.54687 0,-2.14453 -1.69141,-3.38672 -3.48047,-3.38672 -1.77344,0 -3.46875,1.24219 -3.46875,3.38672 0,2.05078 1.40234,3.54687 3.46875,3.54687 m 0,-0.98047 c -1.25781,0 -1.60156,-1.40234 -1.60156,-2.5664 0,-1.09766 0.39844,-2.41016 1.60156,-2.41016 1.23047,0 1.61719,1.3125 1.61719,2.41016 0,1.16406 -0.33203,2.5664 -1.61719,2.5664"
         id="path1363"
         inkscape:connector-curvature="0" />
      <path
         style="fill:#00427f;fill-opacity:1;fill-rule:nonzero;stroke:none"
         d="m 138.56641,509.53125 h 1.73437 v 0.90234 h -1.73437 v 3.25391 c 0,1.08594 0.33203,1.55078 0.91406,1.55078 0.38281,0 0.60547,-0.10937 0.84765,-0.22656 l 0.30079,0.875 c -0.51563,0.27734 -1.14844,0.42187 -1.73047,0.42187 -1.45703,0 -2.09375,-0.76562 -2.09375,-2.11718 v -3.75782 h -0.92578 v -0.90234 h 0.92578 v -1.58984 l 1.76172,-0.39454 z m 0,0"
         id="path1365"
         inkscape:connector-curvature="0" />
      <path
         style="fill:#00427f;fill-opacity:1;fill-rule:nonzero;stroke:none"
         d="m 143.12109,510.3125 c 0.59375,-0.63672 1.42969,-0.94141 2.26172,-0.94141 1.54688,0 2.3711,0.84766 2.3711,2.51563 v 4.26562 h -1.76172 v -4.0664 c 0,-0.92578 -0.41016,-1.53516 -1.32422,-1.53516 -0.85938,0 -1.53516,0.57031 -1.53516,1.65625 v 3.94531 h -1.76172 v -9.73047 h 1.75 z m 0,0"
         id="path1367"
         inkscape:connector-curvature="0" />
      <path
         style="fill:#00427f;fill-opacity:1;fill-rule:nonzero;stroke:none"
         d="m 148.71875,507.54687 c 0,-0.5039 0.42578,-1.01953 1.01953,-1.01953 0.60938,0 1.08594,0.50391 1.08594,1.01953 0,0.56641 -0.41016,1.10938 -1.0586,1.10938 -0.62109,0 -1.04687,-0.54297 -1.04687,-1.10938 m 1.93359,8.60157 h -1.76172 v -6.61719 h 1.76172 z m 0,0"
         id="path1369"
         inkscape:connector-curvature="0" />
      <path
         style="fill:#00427f;fill-opacity:1;fill-rule:nonzero;stroke:none"
         d="m 155.57422,515.18359 c 0,0.35547 0.0391,0.74219 0.17187,0.96485 h 1.86719 c -0.21094,-0.46094 -0.27734,-1.08203 -0.27734,-1.61328 v -2.69922 c 0,-2.06641 -1.4961,-2.46485 -2.71485,-2.46485 -0.91015,0 -1.71875,0.22657 -2.53906,0.90235 l 0.56641,0.83203 c 0.46484,-0.39453 0.99218,-0.67188 1.75,-0.67188 0.5664,0 1.10937,0.38282 1.20312,0.99219 l -1.5625,0.46094 c -1.53515,0.4375 -2.44922,1.15234 -2.44922,2.41015 0,1.21875 0.85938,2.01172 1.89453,2.01172 0.60938,0 1.20313,-0.41015 1.69532,-0.79297 z m 0.0273,-2.87109 c 0.13281,1.94531 -0.78125,2.82031 -1.48437,2.82031 -0.42188,0 -0.79297,-0.39844 -0.79297,-0.98047 0,-0.7539 0.4375,-1.25781 1.29687,-1.52343 z m 0,0"
         id="path1371"
         inkscape:connector-curvature="0" />
      <path
         style="fill:#00427f;fill-opacity:1;fill-rule:nonzero;stroke:none"
         d="m 160.26172,510.3125 c 0.59375,-0.63672 1.42969,-0.94141 2.26172,-0.94141 1.55078,0 2.37109,0.84766 2.37109,2.51563 v 4.26562 h -1.76172 v -4.0664 c 0,-0.92578 -0.41015,-1.53516 -1.32422,-1.53516 -0.85937,0 -1.53515,0.57031 -1.53515,1.65625 v 3.94531 h -1.75782 v -6.62109 h 1.7461 z m 0,0"
         id="path1373"
         inkscape:connector-curvature="0" />
    </g>
  </g>
</svg>
